<?xml version="1.0" encoding="UTF-8" standalone="yes"?><svg xmlns="http://www.w3.org/2000/svg" xmlns:xlink="http://www.w3.org/1999/xlink" width="297.000mm" height="210.000mm" viewBox="0.000000 0.000000 297.000000 210.000000" stroke-linejoin="round" stroke-linecap="round" fill="none" fill-rule="evenodd"><desc>Composer Export</desc><script type="text/ecmascript"><![CDATA[
if(typeof(top) != "undefined")
{
	top.ShowPaper = ShowPaper;
}
function ShowHotSpot(evt,hotspotid)
{
	var svgDocument = evt.target.ownerDocument;
	var strId = "hotspot."+hotspotid;
	var hotspot = svgDocument.getElementById(strId);
	if(hotspot)
		hotspot.setAttribute("opacity",".5");
}
function HideHotSpot(evt,hotspotid)
{
	var svgDocument = evt.target.ownerDocument;
	var strId = "hotspot."+hotspotid;
	var hotspot = svgDocument.getElementById(strId);
	if(hotspot)
		hotspot.setAttribute("opacity","0");

	var toolTip = svgDocument.getElementById('ToolTip');
	if(toolTip)
		toolTip.setAttribute("visibility","hidden");
}
function ShowToolTip(evt,hotspotid,strTooltip)
{
	if(strTooltip=="")
	return;

	// change text
	var svgDocument = evt.target.ownerDocument;
	var tiptext = svgDocument.getElementById('ToolTipText');
	if( !tiptext )
	return;
	tiptext.firstChild.nodeValue = " " + strTooltip + "  " ;

	// show tooltip before, else some refresh issue

	var toolTip = svgDocument.getElementById('ToolTip');
	if(!toolTip)
	return;

	toolTip.setAttribute("visibility","visible");
	toolTip.setAttribute("opacity",".95");

	// move tooltip
	// get viewbox

	var root = svgDocument.documentElement;
	var vbox = (root.getAttribute("viewBox")).split(' ');
	var x0 = parseFloat(vbox[0]);
	var y0 = parseFloat(vbox[1]);
	var vboxW = parseFloat(vbox[2]);
	var vboxH = parseFloat(vbox[3]);

	// get default width of svg

	var strW = root.getAttribute("width");
	var svgW = parseFloat(strW);
	if(strW.indexOf('mm') != -1)
	svgW *= 3.779;

	var strH = root.getAttribute("height");
	var svgH = parseFloat(strH);
	if(strH.indexOf('mm') != -1)
	svgH *= 3.779;  	// 96 dpi  -> 96/25.4 = 3.779

	// update the viewbox / width / height if svg is embedded in html with zoom fit all
	var realx0 = x0;
	var realy0 = y0;
	var realvboxW = vboxW;
	var realvboxH = vboxH;
	var realsvgW = svgW;
	var realsvgH = svgH;

	if ((typeof(top) == "undefined") || (typeof(top.svgctl1) != "undefined")) // embedded in html
	{
		// get window size in pxl

		svgW = window.innerWidth;
		svgH = window.innerHeight;

		// calculate real viewbox

		realsvgW = svgW;
		realsvgH = svgH;
		if((svgW / svgH) > (vboxW / vboxH))
		{
			realvboxW = (vboxH * svgW) / svgH;
			realvboxH = vboxH;
			realx0 = x0 - (realvboxW - vboxW)/2 ;
		}
		else
		{
			realvboxH = (vboxW * svgH) / svgW;
			realvboxW = vboxW;
			realy0 = y0 - (realvboxH - vboxH)/2 ;
		}
	}

	// get user zoom/pan

	var newScale = root.currentScale;
	var translation = root.currentTranslate;

	// transform pxl to user unit

	var xPos = (((evt.clientX+10- translation.x)/newScale) * realvboxW)/realsvgW  + realx0 ;
	var yPos = (((evt.clientY+5- translation.y)/newScale) * realvboxH)/ realsvgH  + realy0 ;
	var scaleForWidth = ( (1 / newScale) * realvboxH) / realsvgH;

	// move tooltip

	toolTip.setAttribute("transform", "translate(" + xPos + "," + yPos + ")" );

	// resize tooltip

	var fontsize = 12;
	tiptext.setAttribute("font-size",fontsize*scaleForWidth);
	tiptext.setAttribute("y", fontsize*scaleForWidth);
	var tipBG = svgDocument.getElementById('ToolTipBG');
	var outline = tiptext.getBBox();
	if(tipBG)
	{
		tipBG.setAttribute("stroke-width", 1*scaleForWidth);
		tipBG.setAttribute("width", Number(outline.width) );
		tipBG.setAttribute("height", Number(outline.height) + fontsize*.5*scaleForWidth );
	}
	var ToolTipShadow = svgDocument.getElementById('ToolTipShadow');
	if(ToolTipShadow)
	{
		ToolTipShadow.setAttribute("width", Number(outline.width) );
		ToolTipShadow.setAttribute("height", Number(outline.height) + fontsize*.5*scaleForWidth );
		ToolTipShadow.setAttribute("x", 3*scaleForWidth);
		ToolTipShadow.setAttribute("y", 3*scaleForWidth);
	}
}
function ShowPaper()
{
  var svgDocument = getDocument();
  var paper = svgDocument.getElementById("paperID");
  if(paper)
  {
    paper.setAttribute("transform","scale(1)");
    paper.setAttribute("opacity","1");
    paper.setAttribute("visibility","visible");
  }
  var svg = svgDocument.getRootElement();
  if(svg)
  {
    svg.setAttribute("width","307.000mm");
    svg.setAttribute("height","220.000mm");
    svg.setAttribute("viewBox","-5.000000 -5.000000 307.000000 220.000000");
  }
}
]]></script><defs/><g><path style="fill:#000000;fill-opacity:0.098;fill-rule:evenodd" d="M50.39,39.33L50.49,38.53L51.41,38.05L51.76,38.05L51.77,38.75L51.30,39.04L51.01,42.12L50.64,42.37L50.18,42.42L50.24,39.31zM46.40,47.91L46.55,47.01L47.43,46.63L47.77,46.63L47.77,47.47L47.31,47.62L47.17,50.54L46.66,50.96L46.19,51.01L46.25,47.89zM62.49,44.87L62.32,45.31L62.03,45.48L61.88,48.40L61.67,48.64L60.90,48.70L60.91,44.81L61.36,44.66L62.34,44.56L62.49,44.03zM50.39,53.37L50.04,53.56L49.54,53.54L50.18,53.24zM51.92,54.64L51.11,55.09L50.00,55.12L50.00,54.94L51.45,54.67L51.94,54.49zM61.17,59.78L60.28,60.03L60.28,59.86L60.59,59.66L61.13,59.69zM60.75,61.36L62.64,60.89L62.34,61.27L61.36,61.52L60.78,61.51zM46.61,61.92L45.62,62.34L45.62,62.04L46.20,61.81L46.56,61.83zM48.12,62.98L47.87,63.35L46.96,63.67L46.01,63.70L46.01,63.52L47.47,63.25L48.10,62.91zM49.61,67.86L49.86,67.64L50.54,67.64L50.53,68.31L50.19,68.43L49.61,68.43zM60.34,74.29L61.07,73.92L61.41,73.92L61.42,74.76L60.34,74.87zM45.62,76.44L45.87,76.23L46.71,76.23L46.71,76.91L45.63,77.01zM54.62,79.61L57.27,79.19L59.68,78.38L61.43,77.37L63.04,75.92L63.67,74.71L63.87,74.23L63.87,75.06L63.71,75.52L62.64,77.20L61.89,77.83L60.45,78.84L57.70,79.92L55.23,80.37L50.63,80.43L50.63,79.59zM51.41,85.78L52.85,85.72L53.01,85.88L52.84,87.79L51.44,87.74L50.39,87.26L49.75,86.52L49.75,85.78L50.33,85.12L50.95,84.79L51.14,84.81zM59.12,86.04L59.07,101.83L58.81,120.28L58.66,123.95L58.35,145.87L58.20,148.48L58.04,148.93L57.52,149.95L56.51,150.78L54.48,151.66L52.32,151.96L51.30,151.96L49.14,151.66L47.88,151.23L47.73,150.86L48.68,151.20L50.40,151.54L50.53,149.09L50.83,126.49L49.91,126.36L49.35,126.16L50.69,126.27L50.84,125.18L50.97,112.41L50.81,112.26L50.97,112.15L51.10,104.73L53.40,104.75L55.13,104.48L56.82,103.88L58.07,102.98L58.22,102.61L57.68,103.05L56.00,103.98L54.16,104.44L51.08,104.49L51.30,92.99L51.40,90.17L53.40,90.18L55.40,89.89L57.15,89.18L58.30,88.33L58.35,87.80L58.82,87.02L58.95,85.58zM49.62,156.37L49.62,157.07L48.54,157.18L48.54,156.61L48.79,156.40L49.49,156.24zM62.99,162.46L62.85,163.10L62.95,162.37zM59.26,163.05L59.83,162.68L60.34,162.68L60.35,163.51L59.25,163.45zM44.54,165.20L45.28,164.82L45.62,164.82L45.63,165.66L44.72,165.76L44.55,165.59zM52.94,168.36L55.44,168.10L58.15,167.29L60.19,166.27L61.89,164.75L62.85,163.10L62.80,163.81L62.34,164.88L61.57,165.96L60.67,166.74L58.50,167.95L56.47,168.68L53.85,169.12L49.91,169.14L49.57,169.02L49.56,168.35zM49.52,173.51L48.62,173.77L48.63,173.60L49.11,173.40L49.48,173.42zM50.78,174.94L49.87,175.26L49.08,175.29L49.08,175.11L50.38,174.85L50.99,174.63zM60.41,179.96L59.40,180.20L59.36,180.04L59.67,179.84L60.37,179.87zM61.67,181.23L61.07,181.55L59.81,181.58L59.81,181.40L61.22,181.25L61.69,180.91L61.87,180.91zM45.69,182.10L44.95,182.30L44.70,182.52L44.70,182.22L45.11,181.99L45.65,182.01zM45.89,183.54L47.18,183.08L47.19,183.26L46.50,183.69L45.10,183.71L45.15,183.54zM50.24,188.04L50.02,188.28L49.25,188.34L49.25,185.06L49.89,184.94L50.23,184.44zM50.19,188.76L51.00,188.13L51.00,188.81L50.71,189.28L49.88,189.67L48.99,189.68L48.65,189.56L48.64,188.74zM60.96,194.48L60.75,194.72L60.14,194.78L60.13,191.34L60.91,191.21L61.11,190.73zM61.73,195.40L61.13,195.87L60.76,196.02L60.76,195.19L61.73,194.57zM46.39,196.15L46.24,196.76L46.06,196.89L45.42,196.93L45.42,193.65L46.19,193.35L46.40,192.87zM44.97,198.14L44.97,197.48L45.42,197.33L46.54,197.22L47.01,196.56L47.01,197.39L46.49,198.09L45.57,198.25z"/><g id="Actor_4.0"><g style="stroke:#000000;stroke-width:0.176"><path d="M58.28,180.51L58.28,180.51"/><path d="M62.02,180.32L62.01,180.42L61.99,180.51L61.95,180.60L61.90,180.69L61.84,180.77L61.77,180.86L61.68,180.94L61.58,181.01L61.48,181.08L61.36,181.14L61.23,181.20L61.10,181.25L61.03,181.27L60.96,181.29L60.81,181.33L60.65,181.35L60.50,181.37L60.34,181.39L60.18,181.39L60.02,181.39L59.86,181.37L59.70,181.35L59.55,181.33L59.40,181.29L59.25,181.25L59.12,181.20L58.99,181.14L58.86,181.08L58.75,181.01L58.65,180.94L58.56,180.86L58.48,180.78L58.42,180.69L58.36,180.60L58.32,180.51L58.30,180.42L58.28,180.32L58.28,180.23"/><path d="M59.26,180.43L59.25,180.40L59.23,180.36L59.23,180.31L59.23,180.26L59.24,180.22L59.25,180.17L59.27,180.13L59.30,180.08L59.33,180.04L59.37,180.00L59.42,179.97L59.45,179.94"/><path d="M61.04,180.45L61.04,180.45L61.06,180.40L61.07,180.36L61.07,180.31L61.07,180.26L61.06,180.22L61.04,180.17L61.02,180.13L60.99,180.08L60.95,180.04L60.91,180.00L60.86,179.96L60.81,179.93L60.75,179.90L60.69,179.87L60.63,179.84L60.59,179.83"/></g><g style="stroke:#000000;stroke-width:0.529"><path d="M59.52,179.27L59.42,179.29L59.27,179.33L59.13,179.37L59.00,179.43L58.88,179.49L58.77,179.55L58.66,179.62L58.57,179.70L58.49,179.78L58.42,179.87L58.37,179.95L58.33,180.04L58.30,180.14L58.28,180.23L58.28,180.51L58.28,180.61L58.29,180.70L58.32,180.79L58.36,180.89L58.41,180.97L58.48,181.06L58.56,181.14L58.65,181.22L58.75,181.30L58.86,181.36L58.98,181.43L59.11,181.48L59.25,181.53L59.39,181.58L59.54,181.61L59.70,181.64L59.86,181.66L60.01,181.67L60.18,181.67L60.34,181.67L60.49,181.66L60.65,181.64L60.80,181.61L60.95,181.58L61.02,181.55L61.09,181.53L61.23,181.48L61.35,181.43L61.47,181.36L61.58,181.29L61.68,181.22L61.76,181.14L61.84,181.06L61.90,180.97L61.95,180.88L61.98,180.79L62.00,180.70L62.01,180.61L62.02,180.32L62.01,180.23L61.99,180.13L61.96,180.04L61.91,179.95L61.85,179.86L61.78,179.78L61.69,179.70L61.60,179.62L61.49,179.55L61.37,179.49L61.25,179.43L61.11,179.37L60.97,179.33L60.91,179.31"/><path d="M60.44,180.08L60.48,180.08L60.55,180.10L60.62,180.13L60.69,180.15L60.75,180.18L60.81,180.21L60.86,180.25L60.91,180.29L60.95,180.33L60.99,180.37L61.02,180.41L61.04,180.45L61.02,180.49L60.99,180.53L60.95,180.57L60.91,180.61L60.86,180.65L60.81,180.68L60.75,180.71L60.68,180.74L60.62,180.77L60.58,180.78L60.55,180.79L60.47,180.81L60.40,180.82L60.32,180.83L60.24,180.84L60.16,180.84L60.08,180.84L60.01,180.83L59.93,180.82L59.85,180.81L59.78,180.79L59.71,180.77L59.64,180.74L59.57,180.72L59.51,180.68L59.46,180.65L59.41,180.61L59.36,180.58L59.33,180.53L59.29,180.49L59.27,180.45L59.26,180.43L59.27,180.41L59.29,180.37L59.33,180.33L59.37,180.29L59.41,180.25L59.46,180.22L59.52,180.18L59.58,180.15L59.64,180.13L59.71,180.10"/></g></g><g id="Actor_4.1"><g style="stroke:#000000;stroke-width:0.176"><path d="M47.32,182.48L47.32,182.57L47.30,182.67L47.27,182.76L47.23,182.85L47.17,182.94L47.10,183.02L47.01,183.10L46.92,183.17L46.87,183.21L46.82,183.24L46.70,183.31L46.58,183.37L46.44,183.42L46.30,183.46L46.16,183.50L46.01,183.53L45.85,183.55L45.69,183.57L45.53,183.57L45.37,183.57L45.21,183.56L45.05,183.54L44.90,183.52L44.75,183.49L44.60,183.44L44.46,183.40L44.33,183.34L44.21,183.28L44.09,183.21L43.99,183.14L43.89,183.06L43.81,182.98L43.74,182.90L43.68,182.81L43.64,182.72L43.61,182.63L43.59,182.53L43.59,182.44"/><path d="M46.34,182.64L46.35,182.62L46.37,182.57L46.38,182.53L46.38,182.48L46.37,182.43L46.36,182.39L46.34,182.34L46.32,182.30L46.29,182.26L46.25,182.22L46.21,182.18L46.16,182.14L46.10,182.10L46.05,182.07L45.98,182.04L45.92,182.02L45.84,182.00L45.77,181.98L45.70,181.96L45.62,181.95L45.54,181.95L45.46,181.94L45.38,181.94L45.30,181.95L45.22,181.96L45.15,181.97L45.07,181.99L45.00,182.01L44.94,182.03L44.87,182.06L44.81,182.09L44.76,182.12L44.71,182.16L44.67,182.20L44.63,182.24L44.60,182.28L44.57,182.32L44.55,182.37L44.54,182.41L44.53,182.46L44.54,182.51L44.54,182.55L44.56,182.60L44.57,182.61"/></g><g style="stroke:#000000;stroke-width:0.529"><path d="M44.20,183.57L44.09,183.50L43.98,183.43L43.89,183.35L43.81,183.27L43.74,183.18L43.68,183.09L43.64,183.00L43.61,182.91L43.59,182.82L43.59,182.72L43.59,182.44L43.60,182.35L43.63,182.25L43.66,182.16L43.72,182.07L43.78,181.99L43.86,181.91L43.95,181.83L44.05,181.76L44.16,181.69L44.28,181.63L44.40,181.57L44.54,181.52L44.68,181.48L44.83,181.45L44.99,181.42L45.14,181.40L45.30,181.39L45.46,181.39L45.62,181.40L45.78,181.41L45.94,181.43L46.09,181.46L46.24,181.50L46.38,181.54L46.52,181.60L46.65,181.65L46.77,181.72L46.88,181.79L46.98,181.86L47.06,181.94L47.14,182.02L47.20,182.11L47.25,182.20L47.29,182.29L47.31,182.39L47.32,182.48L47.32,182.76L47.32,182.86L47.30,182.95L47.27,183.04L47.22,183.13L47.16,183.22L47.09,183.30L47.01,183.38L46.92,183.46L46.87,183.49L46.81,183.53L46.70,183.59L46.57,183.65L46.44,183.70L46.30,183.75L46.15,183.79L46.00,183.82L45.85,183.84L45.69,183.85L45.53,183.86L45.37,183.86L45.21,183.85L45.05,183.83L44.89,183.80L44.74,183.77L44.60,183.73L44.46,183.68L44.33,183.63L44.20,183.57"/><path d="M45.11,182.98L45.18,182.99L45.26,183.01L45.34,183.02L45.41,183.02L45.49,183.02L45.57,183.02L45.65,183.01L45.73,183.00L45.80,182.99L45.88,182.97L45.94,182.95L46.01,182.92L46.07,182.89L46.13,182.86L46.15,182.84L46.18,182.82L46.23,182.79L46.27,182.75L46.30,182.71L46.33,182.66L46.34,182.64L46.34,182.63L46.32,182.58L46.28,182.54L46.25,182.50L46.20,182.46L46.15,182.42L46.10,182.39L46.04,182.36L45.98,182.33L45.91,182.30L45.84,182.28L45.77,182.26L45.69,182.25L45.61,182.24L45.54,182.23L45.46,182.23L45.38,182.23L45.30,182.24L45.22,182.24L45.14,182.26L45.07,182.27L45.00,182.29L44.93,182.32L44.87,182.35L44.81,182.38L44.76,182.41L44.71,182.44L44.66,182.48L44.62,182.52L44.59,182.57L44.57,182.61L44.58,182.64L44.61,182.69L44.64,182.73L44.68,182.77L44.73,182.81L44.78,182.84L44.84,182.88L44.90,182.91L44.97,182.93L45.03,182.96L45.11,182.98"/></g></g><g id="Actor_3.0"><g style="stroke:#000000;stroke-width:0.176"><path d="M62.30,45.41L62.31,44.57L62.35,44.40L62.39,44.21L62.41,44.13L62.45,43.99L62.46,43.93L62.47,43.86L62.46,43.79L62.45,43.72L62.43,43.66L62.40,43.59L62.36,43.53L62.31,43.47L62.25,43.41L62.18,43.35L62.11,43.30L62.03,43.25L61.95,43.20L61.86,43.17L61.77,43.13L61.66,43.09L61.56,43.07L61.45,43.04L61.33,43.03L61.22,43.01L61.10,43.01L60.99,43.01L60.87,43.01L60.76,43.02L60.64,43.04L60.54,43.05L60.44,43.08L60.34,43.11L60.24,43.14L60.15,43.18L60.06,43.23L59.98,43.27L59.90,43.33L59.84,43.38L59.78,43.44L59.73,43.50L59.69,43.56L59.65,43.63L59.63,43.69L59.62,43.75L59.61,43.82L59.62,43.89L59.63,43.96L59.65,44.02L59.68,44.09L59.72,44.15L59.77,44.21L59.83,44.27L59.90,44.33L59.97,44.38L60.05,44.43L60.13,44.48L60.05,44.44L59.96,44.40L59.86,44.36L59.66,44.30L59.50,44.27"/><path d="M61.61,48.63L61.55,48.65L61.49,48.68L61.43,48.71L61.36,48.73L61.29,48.74L61.22,48.76L61.15,48.77L61.07,48.77L61.00,48.77L60.92,48.77L60.85,48.77L60.77,48.76L60.70,48.74L60.63,48.73L60.56,48.71L60.50,48.68L60.44,48.66L60.38,48.63"/><path d="M60.10,48.23L60.10,48.23"/><path d="M60.14,45.43L60.76,45.73L61.90,45.49"/><path d="M60.76,45.73L60.77,44.89L60.97,44.80L61.22,44.71L61.33,44.68L61.44,44.65L61.54,44.63L61.64,44.61L61.75,44.59L61.87,44.58L62.11,44.56L62.31,44.57"/><path d="M60.77,44.89L60.60,44.76L60.40,44.63L60.31,44.57L60.22,44.52L60.13,44.48L60.22,44.51L60.32,44.55L60.42,44.59L60.53,44.61L60.64,44.64L60.75,44.65L60.86,44.67L60.98,44.67L61.09,44.67L61.21,44.67L61.33,44.66L61.44,44.64L61.54,44.63L61.64,44.60L61.74,44.57L61.84,44.54L61.94,44.50L62.02,44.45L62.10,44.41L62.18,44.35L62.24,44.30L62.30,44.24L62.35,44.18L62.39,44.12L62.43,44.05L62.45,43.99L62.49,43.87L62.51,43.81L62.55,43.70L62.58,43.62"/><path d="M61.53,48.67L61.53,48.67"/></g><g style="stroke:#000000;stroke-width:0.529"><path d="M59.48,45.11L59.50,44.27L59.53,44.10L59.57,43.91L59.59,43.83L59.63,43.69L59.67,43.57L59.69,43.51L59.73,43.40L59.77,43.32L59.97,43.23L60.22,43.14L60.33,43.11L60.44,43.08L60.54,43.05L60.64,43.03L60.75,43.02L60.86,43.01L61.11,42.99L61.31,43.00L61.48,43.03L61.68,43.09L61.77,43.13L61.87,43.17L61.95,43.20L62.03,43.25L62.12,43.30L62.22,43.36L62.42,43.49L62.58,43.62L62.57,44.46L62.30,45.41L61.90,45.49L61.86,48.27L61.86,48.31L61.85,48.36L61.83,48.40L61.81,48.44L61.78,48.48L61.74,48.52L61.70,48.56L61.66,48.59L61.61,48.63L61.48,48.69L61.43,48.72L61.37,48.74L61.31,48.76L61.25,48.77L61.19,48.78L61.13,48.79L61.06,48.80L60.99,48.80L60.93,48.80L60.86,48.79L60.80,48.78L60.73,48.77L60.67,48.76L60.61,48.74L60.56,48.72L60.50,48.70L60.45,48.67L60.38,48.63L60.33,48.60L60.28,48.56L60.24,48.53L60.20,48.49L60.17,48.45L60.14,48.40L60.12,48.36L60.11,48.32L60.10,48.27L60.14,45.43L59.48,45.11"/></g></g><g id="Actor_3.1"><g style="stroke:#000000;stroke-width:0.176"><path d="M47.72,187.89L48.49,188.74L48.48,189.59"/><path d="M48.49,188.74L50.14,188.79L50.13,189.63"/><path d="M50.26,187.14L50.24,187.97L50.24,188.01L50.22,188.06L50.20,188.10L50.18,188.14L50.15,188.18L50.11,188.22L50.07,188.25L50.02,188.29L49.96,188.32L49.91,188.35L49.88,188.36L49.85,188.37L49.78,188.39L49.71,188.41L49.64,188.43L49.57,188.44L49.49,188.44L49.42,188.45L49.34,188.45L49.27,188.44L49.19,188.44L49.12,188.43L49.05,188.41L48.98,188.39L48.91,188.37L48.85,188.35L48.79,188.32L48.74,188.29L48.69,188.25L48.64,188.22L48.60,188.18L48.57,188.14L48.54,188.10L48.52,188.06L48.50,188.01L48.49,187.97L48.49,187.92L48.50,187.16"/><path d="M48.54,184.45L48.54,184.49L48.55,184.54L48.56,184.58L48.59,184.62L48.61,184.66L48.65,184.70L48.69,184.74L48.73,184.78L48.78,184.81L48.84,184.84L48.90,184.87L48.96,184.90L49.03,184.92L49.10,184.94L49.17,184.95L49.24,184.96L49.32,184.97L49.39,184.97L49.47,184.97L49.54,184.97L49.62,184.96L49.69,184.95L49.76,184.94L49.83,184.92L49.89,184.90L49.95,184.87L50.01,184.84L50.06,184.81L50.11,184.78L50.16,184.74L50.19,184.70L50.23,184.66L50.25,184.62L50.27,184.58L50.29,184.54L50.29,184.49"/><path d="M49.94,184.05L49.99,184.08L50.03,184.11L50.07,184.14L50.10,184.17L50.13,184.21L50.15,184.25L50.17,184.28L50.18,184.32L50.18,184.36L50.18,184.40L50.18,184.44L50.17,184.48L50.15,184.51L50.13,184.55L50.10,184.58L50.06,184.62L50.03,184.65L49.98,184.68L49.94,184.71L49.89,184.73L49.83,184.75L49.78,184.77L49.72,184.79L49.66,184.80L49.59,184.81L49.53,184.82L49.46,184.82L49.39,184.82L49.33,184.82L49.26,184.81L49.20,184.80L49.14,184.79L49.08,184.77L49.02,184.75L48.96,184.73L48.91,184.71L48.86,184.68L48.82,184.65L48.78,184.62L48.75,184.58L48.72,184.55L48.69,184.51L48.67,184.48L48.66,184.44L48.65,184.40L48.65,184.36L48.65,184.32L48.66,184.28L48.67,184.25L48.69,184.21L48.72,184.17L48.75,184.14L48.78,184.11L48.82,184.08L48.87,184.05"/><path d="M49.30,189.71L49.31,189.71"/><path d="M50.14,188.79L51.01,187.98"/></g><g style="stroke:#000000;stroke-width:0.529"><path d="M49.31,189.71L49.41,189.71L49.53,189.71L49.65,189.70L49.91,189.67L50.13,189.63L50.25,189.57L50.38,189.48L50.45,189.44L50.51,189.38L50.57,189.33L50.62,189.28L50.68,189.21L50.75,189.14L50.89,188.98L51.00,188.82L51.01,187.98L50.26,187.14L50.29,184.45L50.29,184.40L50.27,184.36L50.26,184.32L50.23,184.28L50.20,184.24L50.16,184.20L50.12,184.16L50.07,184.12L50.02,184.09L49.94,184.05L49.89,184.02L49.84,184.00L49.78,183.98L49.73,183.96L49.66,183.95L49.60,183.94L49.54,183.93L49.47,183.92L49.40,183.92L49.34,183.92L49.27,183.93L49.21,183.94L49.14,183.95L49.08,183.96L49.03,183.98L48.97,184.00L48.92,184.02L48.79,184.09L48.74,184.13L48.69,184.16L48.65,184.20L48.62,184.24L48.59,184.28L48.57,184.32L48.55,184.36L48.54,184.40L48.54,184.45L48.50,187.16L47.72,187.89L47.71,188.73L47.81,188.89L47.93,189.06L47.99,189.14L48.04,189.20L48.09,189.26L48.14,189.31L48.20,189.37L48.26,189.42L48.38,189.52L48.48,189.59L48.70,189.64L48.96,189.68L49.08,189.70L49.20,189.71L49.30,189.71"/></g></g><g id="Actor_4.2"><g style="stroke:#000000;stroke-width:0.176"><path d="M51.24,173.95L51.23,174.04L51.21,174.14L51.17,174.23L51.12,174.32L51.06,174.40L50.99,174.49L50.90,174.56L50.80,174.64L50.69,174.71L50.57,174.77L50.51,174.80L50.45,174.82L50.31,174.87L50.17,174.92L50.02,174.95L49.87,174.98L49.71,175.00L49.55,175.01L49.39,175.01L49.23,175.01L49.07,175.00L48.92,174.98L48.76,174.95L48.61,174.91L48.47,174.87L48.33,174.82L48.20,174.76L48.08,174.70L47.97,174.63L47.87,174.56L47.78,174.48L47.70,174.40L47.64,174.31L47.58,174.22L47.54,174.13L47.52,174.04L47.51,173.94"/><path d="M47.51,173.85L47.51,173.85"/><path d="M50.26,174.08L50.26,174.07L50.28,174.03L50.29,173.98L50.29,173.94L50.29,173.89L50.28,173.84L50.27,173.80L50.24,173.75L50.21,173.71L50.18,173.67L50.14,173.63L50.09,173.59L50.04,173.56L49.98,173.52L49.92,173.49L49.85,173.47L49.78,173.44L49.71,173.42L49.63,173.41L49.56,173.40L49.48,173.39L49.40,173.38L49.32,173.38L49.24,173.39L49.16,173.40L49.09,173.41L49.01,173.42L48.94,173.44L48.87,173.47L48.81,173.49L48.75,173.52L48.69,173.55L48.64,173.59L48.59,173.63L48.55,173.67L48.52,173.71L48.49,173.75L48.47,173.80L48.46,173.84L48.45,173.89L48.45,173.93L48.46,173.98L48.47,174.03L48.48,174.05"/></g><g style="stroke:#000000;stroke-width:0.529"><path d="M47.51,173.85L47.50,174.23L47.51,174.32L47.54,174.41L47.58,174.51L47.63,174.60L47.70,174.68L47.78,174.76L47.86,174.84L47.97,174.92L48.08,174.99L48.20,175.05L48.33,175.11L48.46,175.16L48.61,175.20L48.76,175.23L48.91,175.26L49.07,175.28L49.23,175.30L49.39,175.30L49.55,175.30L49.71,175.28L49.87,175.26L50.02,175.24L50.17,175.20L50.31,175.16L50.44,175.11L50.51,175.08L50.57,175.05L50.69,174.99L50.80,174.92L50.89,174.85L50.98,174.77L51.06,174.69L51.12,174.60L51.17,174.51L51.20,174.42L51.23,174.33L51.23,174.24L51.24,173.95L51.23,173.86L51.21,173.76L51.18,173.67L51.13,173.58L51.08,173.49L51.00,173.41L50.92,173.33L50.82,173.25L50.72,173.18L50.60,173.11L50.48,173.05L50.34,173.00L50.20,172.95L50.06,172.91L49.90,172.88L49.75,172.86L49.59,172.84L49.43,172.83L49.27,172.83L49.11,172.84L48.95,172.86L48.80,172.88L48.74,172.89L48.65,172.91L48.50,172.95L48.36,173.00L48.23,173.05L48.11,173.11L47.99,173.17L47.89,173.25L47.80,173.32L47.72,173.40L47.65,173.49L47.59,173.57L47.55,173.66L47.52,173.76L47.51,173.85"/><path d="M48.48,174.05L48.49,174.07L48.51,174.11L48.55,174.16L48.58,174.20L48.63,174.24L48.68,174.27L48.73,174.31L48.79,174.34L48.86,174.37L48.92,174.39L49.00,174.41L49.07,174.43L49.15,174.44L49.22,174.45L49.30,174.46L49.38,174.46L49.46,174.46L49.54,174.46L49.62,174.45L49.69,174.43L49.77,174.41L49.84,174.39L49.90,174.37L49.93,174.36L49.97,174.34L50.02,174.31L50.08,174.28L50.13,174.24L50.17,174.20L50.21,174.16L50.24,174.12L50.26,174.08L50.24,174.04L50.21,174.00L50.17,173.95L50.13,173.91L50.09,173.88L50.03,173.84L49.98,173.81L49.91,173.78L49.85,173.75L49.78,173.73L49.71,173.71L49.63,173.69L49.55,173.68L49.48,173.67L49.40,173.67L49.32,173.67L49.24,173.67L49.16,173.68L49.08,173.69L49.01,173.71L48.94,173.73L48.87,173.75L48.80,173.78L48.74,173.81L48.69,173.84L48.64,173.87L48.59,173.91L48.55,173.95L48.52,173.99L48.49,174.04L48.48,174.05"/></g></g><g id="Actor_3.2"><g style="stroke:#000000;stroke-width:0.176"><path d="M45.45,47.63L46.34,47.93L46.35,47.09L46.54,46.98L46.77,46.87L46.87,46.82L46.97,46.78L47.07,46.75L46.97,46.78L46.87,46.81L46.76,46.83L46.64,46.84L46.53,46.85L46.41,46.86L46.30,46.86L46.18,46.85L46.07,46.84L45.95,46.82L45.84,46.80L45.73,46.77L45.55,46.71L45.44,46.68L45.34,46.66L45.11,46.62L44.92,46.60L44.91,47.44"/><path d="M44.92,46.60L44.92,46.02L44.92,45.83L44.92,45.64"/><path d="M46.35,47.09L46.16,46.98L45.94,46.87L45.84,46.82L45.73,46.78L45.55,46.71L45.45,46.67L45.37,46.62L45.29,46.57L45.21,46.52L45.15,46.46L45.09,46.40L45.04,46.34L44.99,46.28L44.96,46.21L44.94,46.15L44.93,46.08L44.92,46.02L44.92,45.95L44.94,45.88L44.96,45.82L44.99,45.75L45.03,45.69L45.08,45.63L45.14,45.57L45.20,45.51L45.28,45.46L45.36,45.41L45.45,45.37L45.54,45.33L45.63,45.30L45.72,45.27L45.83,45.24L45.94,45.22L46.05,45.21L46.17,45.19L46.28,45.19L46.40,45.19L46.48,45.20L46.52,45.20L46.63,45.21L46.74,45.23L46.85,45.25L46.96,45.28L47.06,45.31L47.15,45.34L47.24,45.38L47.33,45.43L47.41,45.48L47.48,45.53L47.55,45.59L47.61,45.65L47.66,45.71L47.70,45.77L47.73,45.84L47.76,45.90L47.77,45.97L47.78,46.03L47.77,46.10L47.76,46.16L47.74,46.23L47.71,46.30L47.66,46.36L47.62,46.42L47.56,46.48L47.49,46.53L47.42,46.59L47.34,46.63L47.25,46.68L47.16,46.72L47.07,46.75L47.16,46.72L47.26,46.70L47.37,46.67L47.59,46.64L47.78,46.62"/><path d="M46.89,50.83L46.83,50.85L46.77,50.88L46.70,50.90L46.63,50.92L46.56,50.93L46.49,50.95L46.42,50.95L46.34,50.96L46.27,50.96L46.19,50.95L46.12,50.95L46.04,50.94L45.97,50.92L45.90,50.90L45.84,50.88L45.77,50.86L45.71,50.83L45.66,50.80"/><path d="M45.73,50.84L45.74,50.84"/><path d="M46.34,47.93L47.20,47.65"/></g><g style="stroke:#000000;stroke-width:0.529"><path d="M45.34,47.59L44.91,47.44L44.90,46.48L44.92,45.64L45.10,45.53L45.33,45.42L45.43,45.37L45.54,45.33L45.63,45.30L45.72,45.27L45.82,45.24L45.93,45.22L46.15,45.18L46.34,45.16L46.53,45.18L46.76,45.22L46.86,45.25L46.96,45.28L47.06,45.31L47.15,45.34L47.25,45.38L47.36,45.43L47.58,45.54L47.77,45.66L47.77,45.85L47.78,46.03L47.78,46.62L47.77,47.46L47.20,47.65L47.17,50.48L47.16,50.52L47.15,50.56L47.13,50.61L47.10,50.65L47.07,50.69L47.03,50.72L46.99,50.76L46.94,50.79L46.89,50.83L46.81,50.87L46.76,50.89L46.71,50.91L46.65,50.93L46.59,50.95L46.53,50.96L46.46,50.97L46.40,50.98L46.33,50.98L46.27,50.98L46.20,50.98L46.14,50.97L46.07,50.96L46.01,50.95L45.95,50.93L45.89,50.92L45.84,50.89L45.78,50.87L45.74,50.84L45.66,50.80L45.61,50.76L45.56,50.73L45.52,50.69L45.49,50.65L45.46,50.61L45.44,50.57L45.42,50.52L45.41,50.48L45.41,50.44L45.45,47.63L45.34,47.59"/></g></g><g id="Actor_3.3"><g style="stroke:#000000;stroke-width:0.176"><path d="M43.83,196.64L44.88,197.39L46.48,197.25L46.50,197.25L47.08,196.35"/><path d="M44.88,197.39L44.86,198.23"/><path d="M46.34,195.82L46.33,196.51L46.33,196.56L46.32,196.60L46.30,196.64L46.27,196.69L46.24,196.73L46.21,196.76L46.17,196.80L46.12,196.84L46.07,196.87L46.01,196.90L45.95,196.92L45.89,196.94L45.82,196.96L45.75,196.98L45.68,196.99L45.60,197.00L45.53,197.01L45.45,197.01L45.38,197.01L45.30,197.00L45.23,196.99L45.16,196.98L45.09,196.96L45.02,196.94L44.96,196.91L44.90,196.89L44.84,196.86L44.79,196.82L44.74,196.79L44.70,196.75L44.66,196.71L44.63,196.67L44.61,196.63L44.59,196.59L44.58,196.54L44.57,196.50L44.59,195.73"/><path d="M44.62,193.02L44.63,193.07L44.64,193.11L44.66,193.15L44.68,193.20L44.71,193.24L44.75,193.28L44.79,193.31L44.83,193.35L44.89,193.38L44.94,193.41L45.00,193.44L45.07,193.46L45.13,193.48L45.20,193.50L45.28,193.51L45.35,193.52L45.43,193.53L45.50,193.53L45.58,193.53L45.65,193.53L45.73,193.52L45.80,193.51L45.87,193.49L45.94,193.47L46.00,193.45L46.06,193.42L46.12,193.39L46.17,193.36L46.21,193.33L46.26,193.29L46.29,193.25L46.32,193.21L46.35,193.17L46.36,193.13L46.37,193.08L46.38,193.04"/><path d="M46.06,192.63L46.11,192.66L46.14,192.69L46.18,192.72L46.21,192.76L46.23,192.79L46.25,192.83L46.26,192.87L46.27,192.91L46.27,192.95L46.27,192.98L46.26,193.02L46.24,193.06L46.22,193.10L46.19,193.13L46.16,193.17L46.13,193.20L46.09,193.23L46.04,193.26L45.99,193.28L45.94,193.30L45.88,193.32L45.82,193.34L45.76,193.36L45.70,193.37L45.63,193.37L45.57,193.38L45.50,193.38L45.44,193.38L45.37,193.37L45.31,193.36L45.24,193.35L45.18,193.34L45.12,193.32L45.07,193.30L45.01,193.27L44.96,193.25L44.92,193.22L44.88,193.19L44.84,193.15L44.81,193.12L44.78,193.08L44.76,193.05L44.75,193.01L44.74,192.97L44.73,192.93L44.73,192.89L44.74,192.86L44.75,192.82L44.77,192.78L44.80,192.75L44.83,192.71L44.86,192.68L44.90,192.65L44.94,192.62L44.99,192.59"/><path d="M44.91,192.63L44.92,192.63"/><path d="M46.14,192.67L46.14,192.67"/><path d="M46.50,197.25L46.49,198.09"/></g><g style="stroke:#000000;stroke-width:0.529"><path d="M46.14,192.67L46.19,192.71L46.23,192.74L46.27,192.78L46.31,192.82L46.33,192.86L46.35,192.91L46.37,192.95L46.38,192.99L46.38,193.04L46.34,195.82L47.08,196.35L47.07,197.19L46.99,197.36L46.90,197.54L46.86,197.61L46.82,197.68L46.78,197.74L46.74,197.80L46.70,197.86L46.66,197.91L46.57,198.02L46.49,198.09L46.27,198.15L46.02,198.21L45.90,198.24L45.78,198.25L45.68,198.26L45.57,198.27L45.45,198.28L45.33,198.28L45.08,198.26L44.86,198.23L44.72,198.18L44.56,198.10L44.48,198.05L44.41,198.01L44.34,197.96L44.27,197.91L44.20,197.85L44.12,197.78L43.95,197.63L43.82,197.48L43.83,196.64L44.40,195.74L44.59,195.73L44.62,193.02L44.62,192.98L44.63,192.93L44.65,192.89L44.67,192.85L44.69,192.81L44.73,192.77L44.77,192.73L44.81,192.70L44.86,192.66L44.91,192.63L44.99,192.59L45.04,192.57L45.09,192.55L45.15,192.53L45.21,192.51L45.27,192.50L45.34,192.49L45.40,192.48L45.47,192.48L45.53,192.48L45.60,192.49L45.67,192.49L45.73,192.50L45.79,192.52L45.85,192.53L45.91,192.55L45.96,192.58L46.02,192.60L46.14,192.67"/></g></g><g id="Actor_3.4"><g style="stroke:#000000;stroke-width:0.176"><path d="M59.04,195.86L59.05,195.02L58.53,194.10"/><path d="M61.03,193.57L61.02,194.34L61.02,194.39L61.00,194.43L60.98,194.47L60.96,194.51L60.93,194.55L60.89,194.59L60.85,194.63L60.80,194.66L60.75,194.69L60.69,194.72L60.63,194.74L60.56,194.77L60.49,194.79L60.42,194.80L60.35,194.81L60.28,194.82L60.20,194.82L60.13,194.82L60.05,194.82L59.98,194.81L59.90,194.80L59.83,194.79L59.76,194.77L59.69,194.75L59.63,194.72L59.57,194.69L59.52,194.66L59.47,194.63L59.42,194.59L59.38,194.56L59.35,194.52L59.32,194.48L59.30,194.43L59.28,194.39L59.27,194.35L59.27,194.30L59.28,193.62"/><path d="M59.05,195.02L60.67,195.23L61.76,194.52"/><path d="M59.31,190.83L59.32,190.87L59.33,190.91L59.34,190.96L59.37,191.00L59.39,191.04L59.43,191.08L59.47,191.12L59.51,191.15L59.56,191.19L59.62,191.22L59.68,191.25L59.74,191.27L59.81,191.29L59.88,191.31L59.95,191.33L60.02,191.34L60.10,191.34L60.17,191.35L60.25,191.35L60.32,191.34L60.40,191.34L60.47,191.32L60.54,191.31L60.61,191.29L60.67,191.27L60.74,191.24L60.79,191.22L60.85,191.18L60.89,191.15L60.94,191.11L60.97,191.08L61.01,191.04L61.03,191.00L61.05,190.95L61.06,190.91L61.07,190.87"/><path d="M60.72,190.42L60.77,190.45L60.81,190.48L60.85,190.51L60.88,190.55L60.91,190.58L60.93,190.62L60.95,190.66L60.96,190.70L60.96,190.73L60.96,190.77L60.96,190.81L60.94,190.85L60.93,190.89L60.91,190.92L60.88,190.96L60.84,190.99L60.81,191.02L60.77,191.05L60.72,191.08L60.67,191.10L60.62,191.13L60.56,191.14L60.50,191.16L60.44,191.17L60.37,191.18L60.31,191.19L60.24,191.19L60.18,191.19L60.11,191.19L60.04,191.19L59.98,191.18L59.92,191.16L59.86,191.15L59.80,191.13L59.74,191.11L59.69,191.08L59.64,191.05L59.60,191.03L59.56,190.99L59.52,190.96L59.49,190.93L59.47,190.89L59.45,190.85L59.44,190.82L59.43,190.78L59.43,190.74L59.43,190.70L59.44,190.66L59.45,190.62L59.47,190.59L59.50,190.55L59.53,190.52L59.56,190.49L59.60,190.45L59.65,190.43"/><path d="M60.67,195.23L60.65,196.07"/></g><g style="stroke:#000000;stroke-width:0.529"><path d="M61.06,191.37L61.07,190.82L61.06,190.78L61.05,190.73L61.03,190.69L61.01,190.65L60.98,190.61L60.94,190.57L60.90,190.53L60.85,190.50L60.79,190.47L60.72,190.42L60.67,190.40L60.62,190.37L60.56,190.35L60.50,190.34L60.44,190.32L60.38,190.31L60.31,190.30L60.24,190.30L60.18,190.30L60.11,190.30L60.05,190.30L59.98,190.31L59.92,190.32L59.86,190.34L59.80,190.36L59.75,190.38L59.69,190.40L59.57,190.47L59.52,190.50L59.47,190.54L59.43,190.57L59.39,190.61L59.37,190.65L59.34,190.70L59.33,190.74L59.32,190.78L59.31,190.83L59.28,193.62L58.53,194.10L58.52,194.94L58.59,195.11L58.67,195.29L58.71,195.37L58.74,195.44L58.78,195.51L58.81,195.56L58.85,195.62L58.89,195.68L58.97,195.79L59.04,195.86L59.25,195.94L59.51,196.01L59.62,196.03L59.74,196.05L59.85,196.07L59.95,196.08L60.07,196.09L60.19,196.09L60.44,196.09L60.65,196.07L60.80,196.02L60.97,195.95L61.05,195.91L61.13,195.86L61.20,195.82L61.27,195.77L61.35,195.71L61.43,195.65L61.60,195.50L61.75,195.36L61.76,194.52L61.24,193.60L61.03,193.57L61.03,193.53"/></g></g><g id="Actor_4.3"><g style="stroke:#000000;stroke-width:0.176"><path d="M44.47,62.30L44.47,62.39L44.48,62.49L44.51,62.58L44.55,62.67L44.61,62.76L44.67,62.85L44.75,62.93L44.85,63.01L44.95,63.08L45.06,63.15L45.18,63.21L45.31,63.27L45.45,63.32L45.59,63.36L45.74,63.39L45.90,63.42L46.06,63.44L46.22,63.45L46.38,63.45L46.54,63.45L46.70,63.44L46.85,63.42L47.00,63.39L47.15,63.35L47.29,63.31L47.43,63.26L47.55,63.20L47.67,63.14L47.78,63.07L47.87,62.99L47.96,62.91L48.03,62.83L48.09,62.75L48.14,62.66L48.18,62.56L48.20,62.47L48.20,62.38"/><path d="M47.22,62.52L47.23,62.51L47.24,62.46L47.25,62.42L47.26,62.37L47.25,62.32L47.24,62.28L47.23,62.23L47.20,62.19L47.17,62.14L47.14,62.10L47.09,62.06L47.05,62.03L46.99,61.99L46.94,61.96L46.87,61.93L46.81,61.90L46.74,61.88L46.66,61.86L46.59,61.85L46.51,61.83L46.43,61.83L46.35,61.82L46.27,61.82L46.20,61.83L46.12,61.84L46.04,61.85L45.97,61.86L45.90,61.88L45.83,61.91L45.76,61.93L45.70,61.96L45.65,62.00L45.62,62.01L45.60,62.03L45.55,62.07L45.51,62.11L45.48,62.15L45.45,62.19L45.43,62.24L45.42,62.29L45.41,62.33L45.41,62.38L45.42,62.42L45.43,62.47L45.44,62.49"/></g><g style="stroke:#000000;stroke-width:0.529"><path d="M45.18,63.50L45.31,63.55L45.45,63.60L45.59,63.64L45.74,63.68L45.90,63.70L46.05,63.72L46.21,63.74L46.37,63.74L46.53,63.73L46.69,63.72L46.85,63.70L47.00,63.67L47.15,63.64L47.29,63.59L47.42,63.54L47.55,63.49L47.67,63.42L47.77,63.35L47.87,63.28L47.96,63.20L48.03,63.12L48.09,63.03L48.14,62.94L48.17,62.85L48.19,62.76L48.20,62.66L48.20,62.38L48.20,62.28L48.17,62.19L48.14,62.10L48.09,62.01L48.03,61.92L47.96,61.84L47.87,61.76L47.78,61.68L47.67,61.61L47.55,61.55L47.42,61.49L47.29,61.43L47.15,61.39L47.00,61.35L46.85,61.32L46.69,61.29L46.53,61.28L46.37,61.27L46.21,61.27L46.05,61.28L45.90,61.30L45.74,61.32L45.59,61.35L45.45,61.39L45.31,61.44L45.18,61.50L45.06,61.56L44.94,61.62L44.89,61.66L44.84,61.69L44.75,61.77L44.67,61.85L44.61,61.94L44.55,62.02L44.51,62.11L44.48,62.21L44.47,62.30L44.47,62.58L44.47,62.68L44.48,62.77L44.51,62.87L44.55,62.96L44.60,63.05L44.67,63.13L44.75,63.21L44.84,63.29L44.94,63.36L45.06,63.43L45.18,63.50"/><path d="M46.12,62.88L46.20,62.89L46.28,62.90L46.36,62.90L46.44,62.90L46.51,62.89L46.59,62.88L46.67,62.87L46.74,62.85L46.81,62.83L46.88,62.80L46.94,62.78L47.00,62.74L47.05,62.71L47.10,62.67L47.14,62.64L47.17,62.59L47.20,62.55L47.22,62.52L47.20,62.47L47.17,62.43L47.13,62.39L47.09,62.35L47.04,62.31L46.99,62.28L46.93,62.24L46.87,62.21L46.80,62.19L46.73,62.17L46.66,62.15L46.59,62.13L46.51,62.12L46.43,62.11L46.35,62.11L46.27,62.11L46.19,62.11L46.11,62.12L46.04,62.13L45.96,62.15L45.89,62.17L45.82,62.19L45.76,62.22L45.70,62.25L45.64,62.28L45.62,62.30L45.59,62.32L45.55,62.35L45.51,62.39L45.48,62.44L45.45,62.48L45.44,62.49L45.45,62.51L45.48,62.56L45.51,62.60L45.55,62.64L45.60,62.68L45.65,62.72L45.71,62.75L45.77,62.78L45.83,62.81L45.90,62.83L45.97,62.85L46.04,62.87L46.12,62.88"/></g></g><g id="Actor_1.0"><g style="stroke:#000000;stroke-width:0.176"><path d="M58.12,148.67L57.97,148.99L57.78,149.30L57.54,149.60L57.26,149.89L56.93,150.16L56.57,150.41L56.18,150.64L55.74,150.85L55.28,151.04L54.80,151.20L54.28,151.34L53.75,151.46L53.21,151.54L52.65,151.60L52.09,151.63L51.52,151.63L50.96,151.60L50.40,151.55L49.85,151.46L49.31,151.35L48.79,151.22L48.29,151.05L47.82,150.87L47.37,150.66L46.96,150.43L46.58,150.18L46.24,149.91L45.94,149.62L45.69,149.33L45.47,149.02L45.31,148.70L45.19,148.37"/><path d="M45.33,129.94L45.35,130.19"/><path d="M45.33,130.01L45.35,130.26L45.42,130.59L45.52,130.85L45.43,130.61"/><path d="M46.04,131.68L46.18,131.84L46.48,132.13L46.19,131.85L45.92,131.54L45.71,131.23L45.54,130.91L45.72,131.25L45.93,131.56L46.04,131.68"/><path d="M45.54,130.91L45.52,130.85"/><path d="M45.36,130.28L45.42,130.58"/><path d="M45.55,130.93L45.55,130.92"/><path d="M52.61,126.58L51.86,126.59L51.30,126.57L50.74,126.51L50.19,126.43L49.65,126.32L49.13,126.18L48.63,126.02L48.15,125.83L47.71,125.62L47.30,125.39L46.92,125.14L46.58,124.87L46.28,124.58L46.02,124.29L45.81,123.98L45.64,123.66L45.54,123.44L45.71,123.77L45.93,124.08L46.19,124.38L46.50,124.67L46.84,124.95L47.23,125.20L47.65,125.44L48.10,125.65L48.58,125.84L49.09,126.00L49.61,126.14L50.16,126.26L50.72,126.34L51.29,126.40L51.86,126.43L52.44,126.42"/><path d="M45.54,123.44L45.42,123.10"/><path d="M58.22,110.27L57.89,110.62L57.56,110.90L57.19,111.15L56.79,111.39L56.35,111.60L55.88,111.79L55.38,111.96L54.86,112.10L54.33,112.22L53.77,112.31L53.21,112.36L52.63,112.39L52.06,112.40L51.48,112.37L50.91,112.31L50.35,112.23L49.80,112.11L49.28,111.97L48.77,111.81L48.29,111.62L47.84,111.41L47.42,111.17L47.03,110.92L46.69,110.64L46.38,110.35L46.18,110.11L46.34,110.29L46.64,110.59L46.99,110.86L47.38,111.12L47.80,111.35L48.26,111.57L48.75,111.76L49.25,111.93L49.79,112.07L50.34,112.18L50.90,112.27L51.48,112.32L52.06,112.35L52.64,112.35L53.21,112.32L53.78,112.26L54.34,112.17L54.89,112.06L55.41,111.91L55.91,111.75L56.38,111.55L56.82,111.34L57.23,111.10L57.60,110.84L57.93,110.56L58.22,110.27L58.46,109.96L58.66,109.65L58.81,109.32L58.91,109.01"/><path d="M46.18,110.11L46.07,109.99L46.18,110.11"/><path d="M46.12,110.05L46.10,110.01"/><path d="M45.51,108.79L45.56,109.01L45.69,109.35L45.86,109.67L46.07,109.99"/><path d="M45.74,99.93L45.73,100.66L45.76,100.99L45.83,101.32L45.95,101.65L46.12,101.96L46.22,102.12L46.33,102.27L46.59,102.57L46.88,102.86L47.22,103.12L47.60,103.37L48.01,103.60L48.46,103.81L48.93,104.00L49.43,104.16L49.95,104.30L50.49,104.41L51.04,104.50L51.60,104.55L52.16,104.58L52.73,104.58L53.30,104.55L53.85,104.49L54.40,104.40L54.93,104.29L55.44,104.15L55.93,103.99L56.39,103.80L56.82,103.59L57.22,103.35L57.58,103.10L57.90,102.83L58.18,102.55L58.42,102.25L58.61,101.94L58.76,101.62L58.86,101.29L58.91,100.97L58.92,100.08"/><path d="M59.07,101.10L59.02,101.44L58.92,101.77L58.77,102.10L58.57,102.42L58.32,102.73L58.04,103.02L57.70,103.30L57.33,103.55L56.93,103.79L56.49,104.01L56.01,104.20L55.51,104.37L54.99,104.51L54.41,104.63L53.89,104.72L53.32,104.78L52.74,104.81L52.16,104.81L51.58,104.78L51.01,104.72L50.44,104.64L49.88,104.52L49.36,104.38L48.85,104.22L48.36,104.02L47.91,103.81L47.48,103.57L47.10,103.32L46.75,103.04L46.44,102.75L46.18,102.44L46.06,102.29L45.96,102.13L45.79,101.80L45.67,101.47L45.59,101.13L45.57,100.79"/><path d="M59.10,86.62L59.05,86.95L58.95,87.27L58.81,87.59L58.61,87.90L58.38,88.20L58.09,88.48L57.77,88.75L57.41,89.01L57.01,89.24L56.58,89.45L56.12,89.64L55.63,89.80L55.12,89.94L54.59,90.06L54.05,90.14L53.49,90.20L52.93,90.23L52.36,90.23L51.79,90.20L51.23,90.15L51.01,90.11L50.68,90.06L50.15,89.95L49.63,89.82L49.13,89.65L48.66,89.47L48.21,89.26L47.80,89.03L47.42,88.78L47.08,88.51L46.78,88.22L46.52,87.93L46.41,87.77L46.31,87.62L46.14,87.30L46.02,86.97L45.95,86.64L45.93,86.31"/><path d="M47.98,83.55L47.61,83.79L47.28,84.04L46.99,84.31L46.74,84.59L46.53,84.88L46.37,85.19L46.25,85.50L46.18,85.82L46.15,86.14L46.17,86.46L46.24,86.78L46.36,87.09L46.52,87.40L46.62,87.55L46.73,87.70L46.97,87.98L47.26,88.26L47.59,88.52L47.96,88.76L48.36,88.98L48.79,89.19L49.24,89.37L49.73,89.52L50.23,89.66L50.75,89.76L51.28,89.84L51.82,89.90L52.37,89.92L52.92,89.92L53.46,89.89L54.00,89.84L54.41,89.77L55.04,89.65L55.53,89.51L56.00,89.35L56.45,89.17L56.87,88.97L57.25,88.74L57.60,88.50L57.91,88.24L58.18,87.96L58.41,87.67L58.60,87.37L58.74,87.06L58.84,86.75L58.89,86.43L58.89,86.11L58.84,85.79L58.75,85.48L58.59,85.14L58.43,84.86L58.20,84.57L57.93,84.29L57.62,84.02L57.27,83.77L56.89,83.53"/><path d="M47.49,132.81L47.20,132.64L46.82,132.39L46.48,132.13L46.82,132.41L47.20,132.66L47.62,132.89L48.06,133.10L48.53,133.29L49.03,133.45L49.55,133.58L50.09,133.70L50.64,133.78L51.20,133.83L51.76,133.86L52.33,133.86L52.90,133.83L53.45,133.77L54.00,133.69L54.53,133.57L55.04,133.44L55.53,133.27L55.99,133.08L56.42,132.87L56.82,132.64L57.18,132.39L57.50,132.12L57.81,131.79L57.51,132.10L57.18,132.37L56.76,132.66L56.42,132.86L55.99,133.07L55.53,133.26L55.04,133.42L54.53,133.56L54.00,133.68L53.45,133.76L52.90,133.82L52.33,133.85L51.76,133.85L51.20,133.82L50.64,133.77L50.09,133.68L49.55,133.57L49.03,133.44L48.53,133.27L48.06,133.09L47.61,132.88L47.49,132.81"/><path d="M49.67,86.27L49.71,86.46L49.76,86.60L49.83,86.74L49.92,86.87L50.04,87.00L50.17,87.13L50.29,87.22L50.27,87.14L50.26,87.03L50.27,86.92L50.29,86.80L50.34,86.69L50.39,86.59L50.47,86.48L50.66,86.29L50.91,86.12L51.05,86.04L51.36,85.91L51.53,85.86L51.71,85.82L52.08,85.76L52.27,85.74L52.66,85.74L53.04,85.78L53.23,85.81L53.59,85.91L53.91,86.03L54.19,86.19L54.42,86.38L54.60,86.58L54.66,86.69L54.71,86.80L54.74,86.91L54.76,87.02L54.76,87.13L54.73,87.28L54.94,87.12L55.06,87.00L55.16,86.86L55.25,86.73L55.31,86.59L55.35,86.45L55.37,86.31L55.38,86.16L55.35,86.02L55.31,85.88L55.25,85.74L55.17,85.60L55.07,85.47L54.95,85.34L54.81,85.22L54.65,85.11L54.48,85.01L54.29,84.91L53.88,84.75L53.44,84.63L52.96,84.56L52.47,84.54L51.98,84.56L51.51,84.64L51.07,84.76L50.67,84.92L50.49,85.02L50.32,85.12L50.17,85.23L50.04,85.35L49.93,85.48L49.84,85.61L49.76,85.75L49.71,85.89L49.68,86.03L49.67,86.17L49.67,86.27"/><path d="M50.29,87.22L50.48,87.35L50.65,87.45L51.03,87.61L51.27,87.69L51.49,87.75L51.96,87.84L52.45,87.87L52.70,87.87L53.18,87.83L53.65,87.75L54.08,87.62L54.28,87.53L54.47,87.44L54.73,87.28"/><path d="M53.16,126.55L53.55,126.51L54.10,126.42L54.63,126.31L55.14,126.17L55.63,126.00L56.09,125.81L56.52,125.60L56.92,125.37L57.28,125.12L57.60,124.85L57.89,124.56L58.12,124.26L58.32,123.95L58.42,123.74L58.22,124.06L57.98,124.36L57.69,124.65L57.37,124.93L57.00,125.18L56.59,125.42L56.16,125.63L55.69,125.82L55.19,125.99L54.67,126.13L54.13,126.25L53.58,126.34L53.34,126.36"/><path d="M57.81,131.79L58.03,131.52L58.22,131.21L58.36,130.89L58.46,130.56L58.51,130.25"/><path d="M57.04,83.62L56.99,83.60"/><path d="M57.90,131.68L58.02,131.53L58.22,131.21"/><path d="M58.46,130.58L58.37,130.88"/><path d="M58.51,130.28L58.46,130.53"/><path d="M58.42,123.74L58.57,123.42L58.61,123.28"/></g><g style="stroke:#000000;stroke-width:0.529"><path d="M58.77,118.94L58.91,109.01L58.96,108.65L59.07,101.10L59.07,100.76L59.02,100.43L58.92,100.08L59.10,86.62L59.10,86.29L59.06,85.96L58.96,85.63L58.82,85.31L58.63,84.99L58.39,84.69L58.11,84.40L57.79,84.12L57.63,84.00L57.43,83.86L57.04,83.62L56.48,83.32L56.03,83.13L55.56,82.96L55.07,82.82L54.56,82.70L54.03,82.60L53.49,82.53L52.95,82.49L52.40,82.48L51.86,82.50L51.31,82.54L50.78,82.61L50.26,82.70L49.76,82.83L49.27,82.97L48.81,83.14L48.38,83.34L47.82,83.64L47.44,83.88L47.10,84.14L46.80,84.42L46.54,84.71L46.32,85.02L46.15,85.33L46.03,85.65L45.96,85.98L45.93,86.31L45.74,99.93L45.67,100.12L45.60,100.45L45.57,100.79L45.49,106.70L45.47,108.34L45.49,108.68L45.51,108.79L45.33,122.44L45.35,122.78L45.42,123.10L45.09,147.71L45.12,148.04L45.19,148.37L45.33,148.81L45.44,149.12L45.61,149.44L45.81,149.74L46.06,150.03L46.36,150.31L46.69,150.57L47.06,150.81L47.46,151.04L47.90,151.24L48.36,151.43L48.85,151.59L49.35,151.72L49.88,151.83L50.42,151.91L50.97,151.96L51.52,151.99L52.07,151.99L52.63,151.96L53.17,151.90L53.70,151.82L54.22,151.71L54.72,151.57L55.20,151.41L55.65,151.23L56.07,151.02L56.46,150.79L56.81,150.55L57.13,150.28L57.40,150.01L57.63,149.71L57.82,149.41L57.97,149.10L58.12,148.67L58.21,148.35L58.26,148.02L58.61,123.28L58.67,123.09L58.72,122.75L58.75,120.71"/></g></g><g id="Actor_3.5"><g style="stroke:#000000;stroke-width:0.176"><path d="M50.80,42.27L50.74,42.30L50.68,42.32L50.61,42.34L50.54,42.36L50.47,42.38L50.40,42.39L50.32,42.39L50.25,42.40L50.17,42.40L50.10,42.39L50.02,42.39L49.95,42.37L49.88,42.36L49.81,42.34L49.74,42.32L49.68,42.29L49.62,42.27L49.57,42.23"/><path d="M49.64,42.28L49.65,42.28"/><path d="M48.92,38.97L48.93,38.13L49.13,38.13L49.37,38.16L49.48,38.18L49.59,38.20L49.69,38.22L49.79,38.25L49.90,38.29L50.01,38.33L50.24,38.43L50.44,38.53L50.43,39.37L51.12,39.08"/><path d="M50.43,39.37L49.36,39.09"/><path d="M48.75,37.17L48.78,37.25L48.80,37.36L48.82,37.42L48.84,37.54L48.84,37.48L48.84,37.41L48.85,37.35L48.87,37.28L48.89,37.21L48.93,37.15L48.98,37.09L49.03,37.03L49.10,36.97L49.17,36.92L49.25,36.87L49.33,36.82L49.42,36.79L49.51,36.75L49.61,36.72L49.71,36.69L49.82,36.67L49.93,36.65L50.05,36.64L50.16,36.63L50.28,36.63L50.40,36.64L50.51,36.65L50.62,36.66L50.74,36.68L50.84,36.71L50.93,36.73L51.03,36.77L51.13,36.81L51.22,36.85L51.30,36.90L51.38,36.95L51.45,37.01L51.51,37.07L51.56,37.13L51.60,37.19L51.64,37.26L51.67,37.32L51.68,37.39L51.69,37.45L51.69,37.52L51.68,37.58L51.66,37.65L51.63,37.72L51.59,37.78L51.55,37.84L51.49,37.90L51.43,37.96L51.36,38.01L51.28,38.06L51.19,38.11L51.11,38.14L51.02,38.18L50.92,38.21L50.81,38.24L50.70,38.26L50.59,38.28L50.48,38.29L50.36,38.30L50.25,38.30L50.13,38.29L50.01,38.28L49.90,38.27L49.79,38.25L49.69,38.22L49.59,38.20L49.49,38.16L49.40,38.12L49.31,38.08L49.22,38.03L49.15,37.98L49.08,37.92L49.02,37.86L48.96,37.80L48.92,37.74L48.89,37.67L48.86,37.61L48.84,37.54L48.87,37.68L48.88,37.77L48.91,37.95L48.93,38.13"/><path d="M50.44,38.53L50.62,38.41L50.83,38.28L50.93,38.23L51.02,38.18L51.11,38.14L51.19,38.11L51.29,38.08L51.39,38.05L51.60,38.00L51.77,37.97"/><path d="M51.08,41.87L51.08,41.88"/></g><g style="stroke:#000000;stroke-width:0.529"><path d="M48.74,38.04L48.74,38.01L48.75,37.17L48.93,37.05L49.14,36.92L49.23,36.87L49.33,36.82L49.42,36.79L49.50,36.75L49.60,36.72L49.70,36.69L49.90,36.64L50.08,36.61L50.28,36.62L50.52,36.64L50.63,36.66L50.74,36.68L50.84,36.71L50.93,36.73L51.04,36.77L51.15,36.81L51.39,36.91L51.59,37.01L51.61,37.09L51.64,37.20L51.66,37.26L51.68,37.39L51.71,37.53L51.72,37.61L51.75,37.80L51.77,37.97L51.76,38.81L51.12,39.08L51.08,41.92L51.07,41.96L51.06,42.01L51.04,42.05L51.01,42.09L50.98,42.13L50.94,42.17L50.90,42.20L50.85,42.24L50.80,42.27L50.72,42.31L50.67,42.33L50.62,42.36L50.56,42.38L50.50,42.39L50.44,42.40L50.37,42.41L50.31,42.42L50.24,42.42L50.18,42.42L50.11,42.42L50.04,42.41L49.98,42.40L49.92,42.39L49.86,42.37L49.80,42.35L49.74,42.33L49.69,42.31L49.65,42.28L49.57,42.23L49.52,42.20L49.47,42.16L49.43,42.13L49.40,42.09L49.37,42.05L49.35,42.00L49.33,41.96L49.33,41.92L49.32,41.87L49.36,39.09L48.92,38.97L48.74,38.04"/></g></g><g id="Actor_4.4"><g style="stroke:#000000;stroke-width:0.176"><path d="M48.38,53.73L48.38,53.83L48.40,53.92L48.42,54.01L48.46,54.10L48.52,54.19L48.58,54.28L48.66,54.36L48.75,54.44L48.85,54.51L48.96,54.58L49.08,54.64L49.21,54.70L49.35,54.75L49.49,54.79L49.64,54.83L49.80,54.86L49.96,54.88L50.11,54.89L50.28,54.89L50.44,54.89L50.59,54.88L50.75,54.86L50.90,54.83L51.05,54.80L51.19,54.75L51.33,54.70L51.46,54.65L51.57,54.58L51.68,54.52L51.72,54.49L51.78,54.44L51.87,54.36L51.94,54.28L52.00,54.19L52.05,54.11L52.09,54.01L52.11,53.92L52.12,53.83"/><path d="M48.38,54.02L48.38,54.02"/><path d="M49.36,53.93L49.35,53.91L49.33,53.86L49.33,53.81L49.33,53.77L49.34,53.72L49.35,53.68L49.37,53.63L49.40,53.59L49.43,53.55L49.47,53.51L49.52,53.47L49.57,53.43L49.62,53.40L49.68,53.37L49.75,53.35L49.82,53.32L49.89,53.30L49.96,53.29L50.04,53.28L50.12,53.27L50.20,53.26L50.28,53.26L50.36,53.27L50.43,53.28L50.51,53.29L50.59,53.30L50.66,53.32L50.73,53.35L50.79,53.37L50.86,53.40L50.91,53.43L50.97,53.47L51.01,53.51L51.05,53.55L51.07,53.57L51.09,53.59L51.12,53.63L51.14,53.68L51.16,53.72L51.17,53.77L51.17,53.82L51.17,53.86L51.16,53.91L51.14,53.95L51.14,53.96"/><path d="M49.33,53.77L49.33,53.77"/></g><g style="stroke:#000000;stroke-width:0.529"><path d="M48.58,54.56L48.51,54.48L48.46,54.39L48.42,54.30L48.39,54.20L48.38,54.11L48.38,53.73L48.40,53.64L48.43,53.55L48.47,53.46L48.53,53.37L48.59,53.28L48.67,53.20L48.77,53.13L48.87,53.06L48.98,52.99L49.11,52.93L49.24,52.88L49.37,52.83L49.52,52.79L49.67,52.76L49.82,52.74L49.98,52.72L50.14,52.71L50.30,52.71L50.46,52.72L50.62,52.74L50.78,52.76L50.93,52.79L51.08,52.83L51.22,52.88L51.35,52.93L51.48,52.99L51.59,53.06L51.70,53.13L51.80,53.21L51.88,53.29L51.92,53.33L51.95,53.37L52.01,53.46L52.06,53.55L52.09,53.64L52.11,53.73L52.12,53.83L52.11,54.11L52.10,54.21L52.08,54.30L52.05,54.39L52.00,54.48L51.94,54.57L51.86,54.65L51.78,54.73L51.68,54.80L51.57,54.87L51.45,54.93L51.32,54.99L51.19,55.04L51.05,55.08L50.90,55.12L50.75,55.14L50.59,55.16L50.43,55.18L50.27,55.18L50.11,55.18L49.95,55.16L49.79,55.14L49.64,55.11L49.49,55.08L49.35,55.04L49.21,54.99L49.08,54.93L48.96,54.87L48.85,54.80L48.75,54.72L48.66,54.65L48.58,54.56"/><path d="M49.67,54.22L49.61,54.19L49.56,54.15L49.51,54.12L49.46,54.08L49.43,54.04L49.39,54.00L49.37,53.95L49.36,53.93L49.37,53.92L49.39,53.87L49.43,53.83L49.47,53.79L49.51,53.75L49.56,53.72L49.62,53.69L49.68,53.66L49.74,53.63L49.81,53.61L49.88,53.59L49.96,53.57L50.04,53.56L50.11,53.55L50.19,53.55L50.27,53.55L50.35,53.55L50.43,53.56L50.51,53.57L50.58,53.59L50.65,53.61L50.72,53.63L50.79,53.66L50.85,53.69L50.91,53.72L50.96,53.76L51.01,53.79L51.05,53.83L51.07,53.85L51.09,53.87L51.12,53.92L51.14,53.96L51.12,54.00L51.08,54.04L51.05,54.08L51.01,54.12L50.96,54.15L50.90,54.19L50.85,54.22L50.78,54.25L50.72,54.27L50.65,54.29L50.57,54.31L50.50,54.32L50.42,54.33L50.34,54.34L50.26,54.34L50.18,54.34L50.10,54.33L50.03,54.32L49.95,54.31L49.88,54.29L49.81,54.27L49.74,54.25L49.67,54.22"/></g></g><g id="Actor_4.5"><g style="stroke:#000000;stroke-width:0.176"><path d="M59.16,60.16L59.17,60.26L59.19,60.35L59.22,60.44L59.27,60.53L59.33,60.62L59.41,60.71L59.49,60.79L59.59,60.86L59.70,60.93L59.82,61.00L59.94,61.06L60.08,61.11L60.22,61.15L60.37,61.19L60.52,61.22L60.67,61.25L60.83,61.26L60.99,61.27L61.15,61.27L61.31,61.26L61.47,61.24L61.63,61.22L61.78,61.18L61.92,61.14L62.06,61.10L62.19,61.04L62.25,61.01L62.31,60.98L62.42,60.92L62.52,60.84L62.61,60.77L62.69,60.69L62.76,60.60L62.81,60.51L62.85,60.42L62.88,60.33L62.89,60.24"/><path d="M61.91,60.33L61.93,60.30L61.94,60.25L61.95,60.21L61.95,60.16L61.94,60.12L61.93,60.07L61.91,60.02L61.88,59.98L61.85,59.94L61.81,59.90L61.76,59.86L61.71,59.82L61.66,59.79L61.60,59.76L61.53,59.73L61.46,59.71L61.39,59.69L61.32,59.67L61.24,59.66L61.21,59.65L61.16,59.65L61.08,59.64L61.00,59.64L60.93,59.64L60.85,59.65L60.77,59.66L60.69,59.67L60.62,59.69L60.55,59.71L60.49,59.74L60.42,59.76L60.37,59.80L60.31,59.83L60.27,59.87L60.22,59.91L60.19,59.95L60.16,59.99L60.13,60.03L60.12,60.08L60.11,60.13L60.11,60.17L60.11,60.22L60.11,60.23L60.12,60.26L60.14,60.31"/></g><g style="stroke:#000000;stroke-width:0.529"><path d="M59.84,61.30L59.94,61.34L60.07,61.39L60.21,61.44L60.36,61.48L60.51,61.51L60.67,61.53L60.83,61.55L60.99,61.55L61.15,61.55L61.31,61.54L61.47,61.53L61.62,61.50L61.77,61.47L61.92,61.43L62.05,61.38L62.18,61.33L62.25,61.30L62.31,61.27L62.42,61.20L62.52,61.13L62.61,61.05L62.69,60.97L62.75,60.89L62.81,60.80L62.85,60.71L62.88,60.62L62.89,60.52L62.89,60.24L62.89,60.14L62.88,60.05L62.85,59.96L62.81,59.87L62.75,59.78L62.69,59.69L62.61,59.61L62.52,59.53L62.41,59.46L62.30,59.39L62.18,59.33L62.05,59.27L61.91,59.22L61.76,59.18L61.61,59.15L61.46,59.12L61.30,59.10L61.14,59.09L60.98,59.09L60.82,59.09L60.66,59.10L60.51,59.13L60.35,59.15L60.21,59.19L60.07,59.23L59.93,59.28L59.81,59.34L59.69,59.41L59.58,59.47L59.49,59.55L59.40,59.63L59.33,59.71L59.27,59.80L59.22,59.89L59.19,59.98L59.17,60.07L59.16,60.16L59.16,60.45L59.16,60.54L59.19,60.64L59.22,60.73L59.27,60.82L59.33,60.91L59.40,60.99L59.49,61.07L59.59,61.15L59.69,61.22L59.81,61.28L59.84,61.30"/><path d="M60.70,60.68L60.78,60.69L60.85,60.71L60.93,60.71L61.01,60.72L61.09,60.72L61.17,60.71L61.25,60.70L61.32,60.69L61.40,60.68L61.47,60.66L61.54,60.63L61.60,60.61L61.63,60.59L61.66,60.58L61.72,60.54L61.77,60.51L61.81,60.47L61.85,60.43L61.88,60.39L61.91,60.34L61.91,60.33L61.90,60.31L61.88,60.27L61.84,60.22L61.80,60.18L61.78,60.16L61.76,60.14L61.71,60.11L61.65,60.07L61.59,60.04L61.53,60.02L61.46,59.99L61.39,59.97L61.31,59.95L61.24,59.94L61.16,59.93L61.08,59.93L61.00,59.92L60.92,59.93L60.84,59.93L60.77,59.94L60.69,59.96L60.62,59.98L60.55,60.00L60.48,60.02L60.42,60.05L60.36,60.08L60.31,60.12L60.26,60.15L60.22,60.19L60.18,60.23L60.15,60.28L60.14,60.31L60.16,60.35L60.19,60.40L60.23,60.44L60.27,60.48L60.32,60.52L60.37,60.55L60.43,60.58L60.49,60.61L60.56,60.64L60.63,60.66L60.70,60.68"/></g></g><g id="Actor_2.0"><g style="stroke:#000000;stroke-width:0.176"><path d="M62.92,162.09L62.86,162.65L62.71,163.21L62.48,163.76L62.17,164.29L61.79,164.81L61.33,165.30L60.79,165.77L60.19,166.21L59.53,166.62L58.81,166.99L58.03,167.32L57.21,167.61L56.35,167.86L55.45,168.07L54.52,168.22L53.58,168.34L52.62,168.40L51.65,168.41L50.68,168.38L49.72,168.30L48.78,168.17L47.91,168.00L47.85,167.99L46.95,167.77L46.09,167.50L45.27,167.19L44.50,166.84L43.78,166.46L43.12,166.04L42.52,165.59L41.99,165.11L41.53,164.59L41.15,164.08L40.85,163.54L40.62,162.99L40.48,162.43L40.42,161.86"/><path d="M44.77,165.83L44.68,165.77L44.61,165.71L44.57,165.66L44.53,165.61L44.51,165.57L44.49,165.52L44.47,165.47L44.47,165.42L44.47,165.37L44.48,165.32L44.50,165.27L44.52,165.22L44.55,165.17L44.59,165.13L44.63,165.09L44.68,165.05L44.80,164.97L44.94,164.91L45.01,164.89L45.17,164.85L45.34,164.83L45.51,164.83L45.68,164.85L45.77,164.86L45.93,164.90L46.07,164.95L46.20,165.02L46.25,165.06L46.30,165.10L46.35,165.15L46.39,165.19L46.42,165.24L46.44,165.29L46.46,165.34L46.47,165.39L46.47,165.44L46.46,165.49L46.45,165.54L46.44,165.57L46.40,165.63L46.37,165.68L46.33,165.72L46.28,165.76L46.23,165.80L46.16,165.84"/><path d="M48.68,157.27L48.57,157.19L48.52,157.15L48.48,157.10L48.45,157.06L48.42,157.01L48.40,156.96L48.39,156.91L48.38,156.86L48.39,156.81L48.39,156.76L48.41,156.71L48.44,156.66L48.47,156.61L48.50,156.57L48.55,156.53L48.60,156.49L48.72,156.41L48.85,156.36L49.01,156.31L49.17,156.28L49.34,156.27L49.43,156.27L49.60,156.29L49.76,156.32L49.91,156.37L49.99,156.40L50.05,156.43L50.17,156.50L50.22,156.54L50.26,156.59L50.30,156.63L50.33,156.68L50.35,156.73L50.37,156.78L50.38,156.83L50.38,156.88L50.38,156.93L50.36,156.98L50.35,157.01L50.31,157.07L50.28,157.12L50.24,157.16L50.19,157.21L50.14,157.24L50.07,157.28"/><path d="M59.46,163.64L59.35,163.56L59.30,163.52L59.26,163.48L59.23,163.43L59.20,163.38L59.18,163.33L59.17,163.28L59.16,163.23L59.16,163.18L59.17,163.13L59.19,163.08L59.21,163.04L59.24,162.99L59.28,162.94L59.33,162.90L59.38,162.86L59.43,162.82L59.56,162.76L59.63,162.73L59.78,162.69L59.95,162.66L60.12,162.65L60.21,162.65L60.38,162.66L60.46,162.68L60.62,162.72L60.76,162.77L60.83,162.80L60.95,162.88L61.00,162.92L61.04,162.96L61.08,163.01L61.11,163.06L61.13,163.10L61.15,163.15L61.16,163.20L61.16,163.25L61.15,163.30L61.14,163.35L61.13,163.38L61.09,163.45L61.06,163.50L61.02,163.54L60.97,163.58L60.92,163.62L60.85,163.66"/></g><g style="stroke:#000000;stroke-width:0.529"><path d="M57.24,156.17L56.82,156.03L55.94,155.79L55.03,155.59L54.57,155.50L54.10,155.43L53.14,155.32L52.18,155.27L51.21,155.26L50.24,155.30L49.29,155.38L48.35,155.52L47.44,155.70L46.56,155.93L45.71,156.20L44.92,156.51L44.17,156.86L43.47,157.25L42.84,157.67L42.27,158.13L41.77,158.61L41.35,159.11L41.00,159.64L40.73,160.18L40.54,160.73L40.44,161.30L40.42,161.86L40.40,162.70L40.47,163.27L40.61,163.83L40.83,164.38L41.14,164.92L41.52,165.44L41.98,165.95L42.51,166.42L43.11,166.87L43.77,167.29L44.49,167.68L45.26,168.03L46.08,168.34L46.94,168.60L47.84,168.83L48.76,169.00L49.71,169.13L50.67,169.22L51.64,169.25L52.61,169.24L53.57,169.17L54.51,169.06L55.44,168.90L56.34,168.70L57.20,168.45L58.02,168.16L58.80,167.82L59.52,167.45L60.18,167.05L60.78,166.61L61.32,166.14L61.78,165.65L62.16,165.13L62.47,164.59L62.70,164.05L62.85,163.49L62.91,162.93L62.92,162.09L62.91,161.52L62.80,160.96L62.62,160.40L62.35,159.86L62.01,159.32L61.59,158.81L61.09,158.32L60.53,157.85L59.90,157.42L59.21,157.01L58.46,156.65L58.39,156.62"/><path d="M45.05,165.94L44.90,165.89L44.77,165.83L44.86,165.78L44.93,165.75L45.08,165.71L45.16,165.69L45.33,165.67L45.50,165.67L45.67,165.68L45.84,165.72L45.99,165.76L46.06,165.79L46.16,165.84L46.03,165.90L45.88,165.95L45.72,165.98L45.64,165.99L45.55,166.00L45.38,166.00L45.21,165.98L45.05,165.94"/><path d="M48.68,157.27L48.77,157.22L48.84,157.19L49.00,157.15L49.16,157.12L49.33,157.11L49.42,157.11L49.59,157.13L49.75,157.16L49.90,157.20L49.97,157.23L50.07,157.28L49.95,157.34L49.88,157.37L49.72,157.41L49.55,157.43L49.38,157.44L49.21,157.43L49.04,157.40L48.89,157.36L48.81,157.33L48.68,157.27"/><path d="M59.59,163.71L59.74,163.76L59.90,163.79L60.07,163.81L60.24,163.81L60.41,163.80L60.58,163.77L60.73,163.72L60.85,163.66L60.75,163.61L60.68,163.58L60.53,163.53L60.36,163.50L60.19,163.49L60.11,163.48L59.94,163.50L59.77,163.52L59.62,163.57L59.55,163.60L59.46,163.64L59.59,163.71"/></g></g><g id="Actor_2.1"><g style="stroke:#000000;stroke-width:0.176"><path d="M63.96,73.29L63.91,73.85L63.77,74.41L63.56,74.96L63.26,75.50L62.89,76.02L62.44,76.52L61.92,76.99L61.33,77.43L60.67,77.84L59.96,78.22L59.19,78.56L58.38,78.86L57.52,79.12L56.63,79.33L55.71,79.49L54.77,79.61L53.81,79.68L52.84,79.71L51.87,79.68L50.91,79.61L49.96,79.48L49.03,79.31L48.13,79.10L47.26,78.84L46.44,78.54L45.66,78.20L44.93,77.82L44.26,77.40L43.65,76.96L43.11,76.48L42.64,75.98L42.24,75.46L41.92,74.93L41.68,74.37L41.52,73.81L41.45,73.25"/><path d="M47.19,77.14L47.27,77.09L47.32,77.05L47.36,77.01L47.40,76.97L47.44,76.92L47.46,76.87L47.48,76.82L47.49,76.77L47.50,76.72L47.49,76.67L47.48,76.62L47.47,76.57L47.44,76.53L47.41,76.48L47.37,76.43L47.33,76.39L47.28,76.35L47.16,76.28L47.09,76.24L46.94,76.19L46.78,76.15L46.61,76.13L46.53,76.13L46.36,76.13L46.19,76.15L46.03,76.19L45.96,76.21L45.82,76.27L45.76,76.31L45.71,76.35L45.66,76.39L45.61,76.43L45.58,76.47L45.55,76.52L45.52,76.57L45.51,76.62L45.50,76.67L45.50,76.72L45.51,76.76L45.52,76.82L45.56,76.89L45.61,76.96L45.65,77.01L45.70,77.05L45.80,77.12"/><path d="M51.10,68.58L51.18,68.53L51.23,68.49L51.28,68.45L51.32,68.41L51.35,68.36L51.38,68.31L51.40,68.26L51.41,68.21L51.41,68.16L51.41,68.11L51.40,68.06L51.38,68.01L51.36,67.97L51.32,67.92L51.29,67.87L51.24,67.83L51.19,67.79L51.07,67.72L51.00,67.68L50.86,67.63L50.78,67.61L50.61,67.58L50.44,67.57L50.27,67.57L50.10,67.59L49.95,67.63L49.87,67.65L49.74,67.71L49.62,67.79L49.57,67.83L49.53,67.87L49.49,67.92L49.46,67.96L49.44,68.01L49.42,68.06L49.41,68.11L49.41,68.16L49.42,68.21L49.43,68.26L49.47,68.34L49.52,68.40L49.56,68.45L49.61,68.49L49.71,68.56"/><path d="M61.88,74.95L61.96,74.91L62.01,74.87L62.06,74.82L62.10,74.78L62.13,74.74L62.15,74.69L62.17,74.64L62.19,74.59L62.19,74.54L62.19,74.49L62.18,74.44L62.16,74.39L62.13,74.34L62.10,74.29L62.06,74.25L62.02,74.21L61.97,74.16L61.85,74.09L61.78,74.06L61.64,74.01L61.56,73.98L61.39,73.95L61.22,73.94L61.14,73.94L60.97,73.95L60.80,73.98L60.65,74.03L60.51,74.09L60.45,74.12L60.40,74.16L60.35,74.20L60.31,74.25L60.27,74.29L60.24,74.34L60.22,74.39L60.20,74.44L60.19,74.49L60.19,74.54L60.20,74.59L60.21,74.64L60.25,74.71L60.30,74.78L60.34,74.82L60.39,74.87L60.49,74.93"/></g><g style="stroke:#000000;stroke-width:0.529"><path d="M41.67,75.21L41.91,75.76L42.23,76.30L42.62,76.82L43.09,77.32L43.64,77.79L44.21,78.21L44.25,78.24L44.92,78.65L45.64,79.03L46.43,79.38L47.25,79.68L48.12,79.94L49.02,80.15L49.95,80.32L50.90,80.44L51.86,80.52L52.83,80.55L53.80,80.52L54.75,80.45L55.70,80.33L56.62,80.17L57.51,79.95L58.37,79.70L59.18,79.40L59.95,79.06L60.66,78.68L61.32,78.27L61.91,77.83L62.43,77.35L62.88,76.86L63.25,76.34L63.55,75.80L63.76,75.25L63.89,74.69L63.95,74.13L63.96,73.29L63.92,72.72L63.81,72.16L63.61,71.60L63.33,71.06L62.97,70.53L62.54,70.02L62.03,69.53L61.46,69.07L60.82,68.64L60.12,68.24L59.36,67.88L58.56,67.56L57.71,67.28L56.82,67.04L55.91,66.85L54.97,66.70L54.01,66.61L53.04,66.55L52.08,66.55L51.11,66.60L50.16,66.70L49.23,66.84L48.32,67.03L47.44,67.26L46.61,67.54L45.82,67.86L45.08,68.22L44.73,68.41L44.39,68.61L43.77,69.04L43.21,69.50L42.73,69.99L42.32,70.49L41.98,71.02L41.73,71.57L41.55,72.12L41.46,72.68L41.44,74.09L41.51,74.65L41.67,75.21"/><path d="M46.02,77.22L46.17,77.26L46.26,77.27L46.42,77.29L46.60,77.29L46.77,77.27L46.93,77.24L47.08,77.19L47.19,77.14L47.08,77.08L47.01,77.05L46.85,77.01L46.69,76.98L46.52,76.96L46.35,76.97L46.18,76.99L46.10,77.00L45.95,77.05L45.88,77.08L45.80,77.12L45.87,77.16L46.02,77.22"/><path d="M49.88,68.49L49.79,68.52L49.71,68.56L49.79,68.60L49.86,68.63L50.01,68.68L50.17,68.71L50.34,68.73L50.51,68.73L50.68,68.71L50.76,68.70L50.92,68.66L50.99,68.63L51.10,68.58L50.99,68.52L50.85,68.47L50.69,68.43L50.52,68.41L50.35,68.40L50.18,68.42L50.01,68.45L49.88,68.49"/><path d="M60.50,74.93L60.49,74.93L60.57,74.97L60.63,75.00L60.79,75.05L60.87,75.07L61.03,75.10L61.20,75.11L61.37,75.10L61.54,75.08L61.69,75.03L61.77,75.01L61.88,74.95L61.77,74.90L61.70,74.87L61.55,74.82L61.38,74.79L61.21,74.78L61.12,74.78L60.95,74.79L60.79,74.82L60.64,74.87L60.50,74.93"/></g></g><g id="PMI3.0"><g><path style="stroke:#000000;stroke-width:0.250" d="M93.68,145.24L60.36,193.45"/></g><g><path style="fill:#000000" d="M61.36,193.45L61.36,193.35L61.34,193.25L61.32,193.15L61.29,193.06L61.24,192.97L61.19,192.89L61.13,192.81L61.07,192.74L61.00,192.67L60.92,192.61L60.83,192.56L60.74,192.52L60.65,192.49L60.56,192.46L60.46,192.45L60.36,192.45L60.26,192.45L60.17,192.46L60.07,192.49L59.98,192.52L59.89,192.56L59.81,192.61L59.73,192.67L59.65,192.74L59.59,192.81L59.53,192.89L59.48,192.97L59.44,193.06L59.40,193.15L59.38,193.25L59.37,193.35L59.36,193.45L59.37,193.54L59.38,193.64L59.40,193.74L59.44,193.83L59.48,193.92L59.53,194.00L59.59,194.08L59.65,194.15L59.73,194.22L59.81,194.28L59.89,194.33L59.98,194.37L60.07,194.40L60.17,194.43L60.26,194.44L60.36,194.45L60.46,194.44L60.56,194.43L60.65,194.40L60.74,194.37L60.83,194.33L60.92,194.28L61.00,194.22L61.07,194.15L61.13,194.08L61.19,194.00L61.24,193.92L61.29,193.83L61.32,193.74L61.34,193.64L61.36,193.54z"/></g><g><path style="fill:#ffffff" d="M98.99,142.45L98.98,142.12L98.93,141.79L98.85,141.47L98.74,141.16L98.59,140.86L98.42,140.57L98.23,140.30L98.00,140.06L97.76,139.84L97.49,139.64L97.20,139.47L96.90,139.32L96.59,139.21L96.27,139.13L95.94,139.08L95.61,139.07L95.28,139.08L94.95,139.13L94.63,139.21L94.31,139.32L94.01,139.47L93.73,139.64L93.46,139.84L93.21,140.06L92.99,140.30L92.79,140.57L92.62,140.86L92.48,141.16L92.37,141.47L92.29,141.79L92.24,142.12L92.22,142.45L92.24,142.78L92.29,143.11L92.37,143.44L92.48,143.75L92.62,144.05L92.79,144.33L92.99,144.60L93.21,144.85L93.46,145.07L93.73,145.27L94.01,145.44L94.31,145.58L94.63,145.69L94.95,145.77L95.28,145.82L95.61,145.84L95.94,145.82L96.27,145.77L96.59,145.69L96.90,145.58L97.20,145.44L97.49,145.27L97.76,145.07L98.00,144.85L98.23,144.60L98.42,144.33L98.59,144.05L98.74,143.75L98.85,143.44L98.93,143.11L98.98,142.78z"/><path style="stroke:#000000;stroke-width:0.250;stroke-opacity:0.98" d="M98.99,142.45L98.98,142.12L98.93,141.79L98.85,141.47L98.74,141.16L98.59,140.86L98.42,140.57L98.23,140.30L98.00,140.06L97.76,139.84L97.49,139.64L97.20,139.47L96.90,139.32L96.59,139.21L96.27,139.13L95.94,139.08L95.61,139.07L95.28,139.08L94.95,139.13L94.63,139.21L94.31,139.32L94.01,139.47L93.73,139.64L93.46,139.84L93.21,140.06L92.99,140.30L92.79,140.57L92.62,140.86L92.48,141.16L92.37,141.47L92.29,141.79L92.24,142.12L92.22,142.45L92.24,142.78L92.29,143.11L92.37,143.44L92.48,143.75L92.62,144.05L92.79,144.33L92.99,144.60L93.21,144.85L93.46,145.07L93.73,145.27L94.01,145.44L94.31,145.58L94.63,145.69L94.95,145.77L95.28,145.82L95.61,145.84L95.94,145.82L96.27,145.77L96.59,145.69L96.90,145.58L97.20,145.44L97.49,145.27L97.76,145.07L98.00,144.85L98.23,144.60L98.42,144.33L98.59,144.05L98.74,143.75L98.85,143.44L98.93,143.11L98.98,142.78z"/><text xml:space="preserve" fill="#000000" stroke-width="0" x="94.54" y="143.93" font-size="3.83" opacity="1.00" font-family="Microsoft Sans Serif">3</text></g></g><g id="PMI4.0"><g><path style="stroke:#000000;stroke-width:0.250" d="M93.88,124.94L59.71,180.10"/></g><g><path style="fill:#000000" d="M60.71,180.10L60.71,180.01L60.69,179.91L60.67,179.81L60.64,179.72L60.59,179.63L60.54,179.55L60.48,179.47L60.42,179.40L60.35,179.33L60.27,179.27L60.18,179.22L60.09,179.18L60.00,179.15L59.91,179.12L59.81,179.11L59.71,179.10L59.61,179.11L59.52,179.12L59.42,179.15L59.33,179.18L59.24,179.22L59.16,179.27L59.08,179.33L59.00,179.40L58.94,179.47L58.88,179.55L58.83,179.63L58.79,179.72L58.75,179.81L58.73,179.91L58.72,180.01L58.71,180.10L58.72,180.20L58.73,180.30L58.75,180.39L58.79,180.49L58.83,180.58L58.88,180.66L58.94,180.74L59.00,180.81L59.08,180.88L59.16,180.94L59.24,180.99L59.33,181.03L59.42,181.06L59.52,181.08L59.61,181.10L59.71,181.10L59.81,181.10L59.91,181.08L60.00,181.06L60.09,181.03L60.18,180.99L60.27,180.94L60.35,180.88L60.42,180.81L60.48,180.74L60.54,180.66L60.59,180.58L60.64,180.49L60.67,180.39L60.69,180.30L60.71,180.20z"/></g><g><path style="fill:#ffffff" d="M99.05,122.07L99.04,121.73L98.99,121.41L98.91,121.08L98.80,120.77L98.65,120.47L98.48,120.18L98.29,119.92L98.06,119.67L97.82,119.45L97.55,119.25L97.26,119.08L96.96,118.94L96.65,118.83L96.33,118.75L96.00,118.70L95.67,118.68L95.34,118.70L95.01,118.75L94.68,118.83L94.37,118.94L94.07,119.08L93.79,119.25L93.52,119.45L93.27,119.67L93.05,119.92L92.85,120.18L92.68,120.47L92.54,120.77L92.43,121.08L92.35,121.41L92.30,121.73L92.28,122.07L92.30,122.40L92.35,122.73L92.43,123.05L92.54,123.36L92.68,123.66L92.85,123.95L93.05,124.21L93.27,124.46L93.52,124.68L93.79,124.88L94.07,125.05L94.37,125.19L94.68,125.31L95.01,125.39L95.34,125.44L95.67,125.45L96.00,125.44L96.33,125.39L96.65,125.31L96.96,125.19L97.26,125.05L97.55,124.88L97.82,124.68L98.06,124.46L98.29,124.21L98.48,123.95L98.65,123.66L98.80,123.36L98.91,123.05L98.99,122.73L99.04,122.40z"/><path style="stroke:#000000;stroke-width:0.250;stroke-opacity:0.98" d="M99.05,122.07L99.04,121.73L98.99,121.41L98.91,121.08L98.80,120.77L98.65,120.47L98.48,120.18L98.29,119.92L98.06,119.67L97.82,119.45L97.55,119.25L97.26,119.08L96.96,118.94L96.65,118.83L96.33,118.75L96.00,118.70L95.67,118.68L95.34,118.70L95.01,118.75L94.68,118.83L94.37,118.94L94.07,119.08L93.79,119.25L93.52,119.45L93.27,119.67L93.05,119.92L92.85,120.18L92.68,120.47L92.54,120.77L92.43,121.08L92.35,121.41L92.30,121.73L92.28,122.07L92.30,122.40L92.35,122.73L92.43,123.05L92.54,123.36L92.68,123.66L92.85,123.95L93.05,124.21L93.27,124.46L93.52,124.68L93.79,124.88L94.07,125.05L94.37,125.19L94.68,125.31L95.01,125.39L95.34,125.44L95.67,125.45L96.00,125.44L96.33,125.39L96.65,125.31L96.96,125.19L97.26,125.05L97.55,124.88L97.82,124.68L98.06,124.46L98.29,124.21L98.48,123.95L98.65,123.66L98.80,123.36L98.91,123.05L98.99,122.73L99.04,122.40z"/><text xml:space="preserve" fill="#000000" stroke-width="0" x="94.54" y="123.55" font-size="4.05" opacity="1.00" font-family="Microsoft Sans Serif">4</text></g></g><g id="PMI2.0"><g><path style="stroke:#000000;stroke-width:0.250" d="M93.71,104.46L56.68,158.04"/></g><g><path style="fill:#000000" d="M57.68,158.04L57.68,157.94L57.66,157.84L57.64,157.75L57.61,157.65L57.56,157.57L57.51,157.48L57.46,157.40L57.39,157.33L57.32,157.26L57.24,157.20L57.15,157.15L57.07,157.11L56.97,157.08L56.88,157.06L56.78,157.04L56.68,157.04L56.58,157.04L56.49,157.06L56.39,157.08L56.30,157.11L56.21,157.15L56.13,157.20L56.05,157.26L55.98,157.33L55.91,157.40L55.85,157.48L55.80,157.57L55.76,157.65L55.73,157.75L55.70,157.84L55.69,157.94L55.68,158.04L55.69,158.13L55.70,158.23L55.73,158.33L55.76,158.42L55.80,158.51L55.85,158.59L55.91,158.67L55.98,158.74L56.05,158.81L56.13,158.87L56.21,158.92L56.30,158.96L56.39,158.99L56.49,159.02L56.58,159.03L56.68,159.04L56.78,159.03L56.88,159.02L56.97,158.99L57.07,158.96L57.15,158.92L57.24,158.87L57.32,158.81L57.39,158.74L57.46,158.67L57.51,158.59L57.56,158.51L57.61,158.42L57.64,158.33L57.66,158.23L57.68,158.13z"/></g><g><path style="fill:#ffffff" d="M99.02,101.68L99.00,101.35L98.96,101.02L98.87,100.70L98.76,100.38L98.62,100.08L98.45,99.80L98.25,99.53L98.03,99.28L97.78,99.06L97.52,98.86L97.23,98.69L96.93,98.55L96.62,98.44L96.30,98.36L95.97,98.31L95.63,98.29L95.30,98.31L94.97,98.36L94.65,98.44L94.34,98.55L94.04,98.69L93.75,98.86L93.49,99.06L93.24,99.28L93.02,99.53L92.82,99.80L92.65,100.08L92.51,100.38L92.39,100.70L92.31,101.02L92.26,101.35L92.25,101.68L92.26,102.01L92.31,102.34L92.39,102.66L92.51,102.97L92.65,103.28L92.82,103.56L93.02,103.83L93.24,104.07L93.49,104.30L93.75,104.49L94.04,104.67L94.34,104.81L94.65,104.92L94.97,105.00L95.30,105.05L95.63,105.07L95.97,105.05L96.30,105.00L96.62,104.92L96.93,104.81L97.23,104.67L97.52,104.49L97.78,104.30L98.03,104.07L98.25,103.83L98.45,103.56L98.62,103.28L98.76,102.97L98.87,102.66L98.96,102.34L99.00,102.01z"/><path style="stroke:#000000;stroke-width:0.250;stroke-opacity:0.98" d="M99.02,101.68L99.00,101.35L98.96,101.02L98.87,100.70L98.76,100.38L98.62,100.08L98.45,99.80L98.25,99.53L98.03,99.28L97.78,99.06L97.52,98.86L97.23,98.69L96.93,98.55L96.62,98.44L96.30,98.36L95.97,98.31L95.63,98.29L95.30,98.31L94.97,98.36L94.65,98.44L94.34,98.55L94.04,98.69L93.75,98.86L93.49,99.06L93.24,99.28L93.02,99.53L92.82,99.80L92.65,100.08L92.51,100.38L92.39,100.70L92.31,101.02L92.26,101.35L92.25,101.68L92.26,102.01L92.31,102.34L92.39,102.66L92.51,102.97L92.65,103.28L92.82,103.56L93.02,103.83L93.24,104.07L93.49,104.30L93.75,104.49L94.04,104.67L94.34,104.81L94.65,104.92L94.97,105.00L95.30,105.05L95.63,105.07L95.97,105.05L96.30,105.00L96.62,104.92L96.93,104.81L97.23,104.67L97.52,104.49L97.78,104.30L98.03,104.07L98.25,103.83L98.45,103.56L98.62,103.28L98.76,102.97L98.87,102.66L98.96,102.34L99.00,102.01z"/><text xml:space="preserve" fill="#000000" stroke-width="0" x="94.54" y="103.16" font-size="3.93" opacity="1.00" font-family="Microsoft Sans Serif">2</text></g></g><g id="PMI1.0"><g><path style="stroke:#000000;stroke-width:0.250" d="M93.28,83.74L52.44,126.42"/></g><g><path style="fill:#000000" d="M53.44,126.42L53.44,126.33L53.42,126.23L53.40,126.13L53.36,126.04L53.32,125.95L53.27,125.87L53.21,125.79L53.15,125.72L53.08,125.65L53.00,125.59L52.91,125.54L52.82,125.50L52.73,125.47L52.64,125.44L52.54,125.43L52.44,125.42L52.34,125.43L52.25,125.44L52.15,125.47L52.06,125.50L51.97,125.54L51.89,125.59L51.81,125.65L51.73,125.72L51.67,125.79L51.61,125.87L51.56,125.95L51.52,126.04L51.48,126.13L51.46,126.23L51.45,126.33L51.44,126.42L51.45,126.52L51.46,126.62L51.48,126.71L51.52,126.81L51.56,126.90L51.61,126.98L51.67,127.06L51.73,127.13L51.81,127.20L51.89,127.26L51.97,127.31L52.06,127.35L52.15,127.38L52.25,127.41L52.34,127.42L52.44,127.42L52.54,127.42L52.64,127.41L52.73,127.38L52.82,127.35L52.91,127.31L53.00,127.26L53.08,127.20L53.15,127.13L53.21,127.06L53.27,126.98L53.32,126.90L53.36,126.81L53.40,126.71L53.42,126.62L53.44,126.52z"/></g><g><path style="fill:#ffffff" d="M99.01,81.29L98.99,80.96L98.94,80.63L98.86,80.31L98.75,80.00L98.61,79.70L98.44,79.41L98.24,79.14L98.02,78.90L97.77,78.67L97.50,78.48L97.22,78.31L96.92,78.16L96.60,78.05L96.28,77.97L95.95,77.92L95.62,77.91L95.29,77.92L94.96,77.97L94.64,78.05L94.33,78.16L94.03,78.31L93.74,78.48L93.47,78.67L93.23,78.90L93.00,79.14L92.81,79.41L92.64,79.70L92.49,80.00L92.38,80.31L92.30,80.63L92.25,80.96L92.24,81.29L92.25,81.62L92.30,81.95L92.38,82.28L92.49,82.59L92.64,82.89L92.81,83.17L93.00,83.44L93.23,83.69L93.47,83.91L93.74,84.11L94.03,84.28L94.33,84.42L94.64,84.53L94.96,84.61L95.29,84.66L95.62,84.68L95.95,84.66L96.28,84.61L96.60,84.53L96.92,84.42L97.22,84.28L97.50,84.11L97.77,83.91L98.02,83.69L98.24,83.44L98.44,83.17L98.61,82.89L98.75,82.59L98.86,82.28L98.94,81.95L98.99,81.62z"/><path style="stroke:#000000;stroke-width:0.250;stroke-opacity:0.98" d="M99.01,81.29L98.99,80.96L98.94,80.63L98.86,80.31L98.75,80.00L98.61,79.70L98.44,79.41L98.24,79.14L98.02,78.90L97.77,78.67L97.50,78.48L97.22,78.31L96.92,78.16L96.60,78.05L96.28,77.97L95.95,77.92L95.62,77.91L95.29,77.92L94.96,77.97L94.64,78.05L94.33,78.16L94.03,78.31L93.74,78.48L93.47,78.67L93.23,78.90L93.00,79.14L92.81,79.41L92.64,79.70L92.49,80.00L92.38,80.31L92.30,80.63L92.25,80.96L92.24,81.29L92.25,81.62L92.30,81.95L92.38,82.28L92.49,82.59L92.64,82.89L92.81,83.17L93.00,83.44L93.23,83.69L93.47,83.91L93.74,84.11L94.03,84.28L94.33,84.42L94.64,84.53L94.96,84.61L95.29,84.66L95.62,84.68L95.95,84.66L96.28,84.61L96.60,84.53L96.92,84.42L97.22,84.28L97.50,84.11L97.77,83.91L98.02,83.69L98.24,83.44L98.44,83.17L98.61,82.89L98.75,82.59L98.86,82.28L98.94,81.95L98.99,81.62z"/><text xml:space="preserve" fill="#000000" stroke-width="0" x="94.70" y="82.77" font-size="3.33" opacity="1.00" font-family="Microsoft Sans Serif">1</text></g></g><g><g/><g><image x="11.180519" y="7.834845" height="21.567348" width="110.072701" xlink:href="AirSteer Plus_files/96b06ce866271795_image_0.jpg"/></g></g><g><g/><g><path style="fill:#ffffff" d="M190.26,43.21L242.30,43.21L242.30,56.75L190.26,56.75z"/><text xml:space="preserve" fill="#000000" stroke-width="0" x="191.95" y="52.52" font-size="8.07" opacity="1.00" font-family="Microsoft Sans Serif" font-weight="bold">3075XXX401</text></g></g><g><g/><g><path style="fill:#ffffff" d="M191.94,55.31L236.83,55.31L236.83,62.08L191.94,62.08z"/><text xml:space="preserve" fill="#000000" stroke-width="0" x="192.79" y="59.96" font-size="4.12" opacity="1.00" font-family="Microsoft Sans Serif">KIT REPOSIÇÃO PINO</text></g></g><g><g/><g><image x="238.324799" y="8.890511" height="32.036491" width="50.737221" xlink:href="AirSteer Plus_files/96b06ce866271795_image_1.jpg"/></g></g><g/><g id="paperID" visibility="hidden" opacity="0.00" transform="scale(0.000100)"><path style="stroke:#000000;stroke-width:0.500;fill:#e6e6e6;fill-rule:evenodd" d="M-2000.00,-2000.00L2297.00,-2000.00L2297.00,2210.00L-2000.00,2210.00zM0.00,0.00L297.00,0.00L297.00,210.00L0.00,210.00z"/><path style="fill:#000000;fill-opacity:0.118" d="M3.00,210.00L297.00,210.00L297.00,3.00L300.00,3.00L300.00,213.00L3.00,213.00z"/></g><g><g><path style="stroke:#000000;stroke-width:0.353;fill:#f0f0ff" d="M141.49,63.37L285.50,63.37L285.50,68.87L141.49,68.87z"/><text xml:space="preserve" fill="#000000" stroke-width="0" x="143.60" y="67.60" font-size="3.77" opacity="1.00" font-family="Microsoft Sans Serif" font-weight="bold">Nº</text><text xml:space="preserve" fill="#000000" stroke-width="0" x="152.03" y="67.60" font-size="3.98" opacity="1.00" font-family="Microsoft Sans Serif" font-weight="bold">Código</text><text xml:space="preserve" fill="#000000" stroke-width="0" x="180.57" y="67.60" font-size="3.96" opacity="1.00" font-family="Microsoft Sans Serif" font-weight="bold">Descrição</text><text xml:space="preserve" fill="#000000" stroke-width="0" x="276.87" y="67.60" font-size="3.93" opacity="1.00" font-family="Microsoft Sans Serif" font-weight="bold">Qtd</text><path style="stroke:#000000;stroke-width:0.353" d="M149.92,63.37L149.92,68.87"/><path style="stroke:#000000;stroke-width:0.353" d="M178.46,63.37L178.46,68.87"/><path style="stroke:#000000;stroke-width:0.353" d="M274.75,63.37L274.75,68.87"/></g><g id="Line1"><path style="stroke:#000000;stroke-width:0.353;fill:#ffffff" d="M141.49,68.87L285.50,68.87L285.50,74.37L141.49,74.37z"/><text xml:space="preserve" fill="#000000" stroke-width="0" x="143.60" y="73.10" font-size="3.33" opacity="1.00" font-family="Microsoft Sans Serif">1</text><text xml:space="preserve" fill="#000000" stroke-width="0" x="152.03" y="73.10" font-size="4.13" opacity="1.00" font-family="Microsoft Sans Serif">3010504401</text><text xml:space="preserve" fill="#000000" stroke-width="0" x="180.57" y="73.10" font-size="4.13" opacity="1.00" font-family="Microsoft Sans Serif">PINO DE ARTICULAÇÃO</text><text xml:space="preserve" fill="#000000" stroke-width="0" x="276.87" y="73.10" font-size="3.33" opacity="1.00" font-family="Microsoft Sans Serif">1</text><path style="stroke:#000000;stroke-width:0.353" d="M149.92,68.87L149.92,74.37"/><path style="stroke:#000000;stroke-width:0.353" d="M178.46,68.87L178.46,74.37"/><path style="stroke:#000000;stroke-width:0.353" d="M274.75,68.87L274.75,74.37"/></g><g id="Line2"><path style="stroke:#000000;stroke-width:0.353;fill:#f0f0ff" d="M141.49,74.37L285.50,74.37L285.50,79.87L141.49,79.87z"/><text xml:space="preserve" fill="#000000" stroke-width="0" x="143.60" y="78.60" font-size="3.93" opacity="1.00" font-family="Microsoft Sans Serif">2</text><text xml:space="preserve" fill="#000000" stroke-width="0" x="152.03" y="78.60" font-size="4.13" opacity="1.00" font-family="Microsoft Sans Serif">3065212401</text><text xml:space="preserve" fill="#000000" stroke-width="0" x="180.57" y="78.60" font-size="4.15" opacity="1.00" font-family="Microsoft Sans Serif">TAMPA FUNDIDO MÓVEL AIRSTEER PLUS</text><text xml:space="preserve" fill="#000000" stroke-width="0" x="276.87" y="78.60" font-size="3.93" opacity="1.00" font-family="Microsoft Sans Serif">2</text><path style="stroke:#000000;stroke-width:0.353" d="M149.92,74.37L149.92,79.87"/><path style="stroke:#000000;stroke-width:0.353" d="M178.46,74.37L178.46,79.87"/><path style="stroke:#000000;stroke-width:0.353" d="M274.75,74.37L274.75,79.87"/></g><g id="Line3"><path style="stroke:#000000;stroke-width:0.353;fill:#ffffff" d="M141.49,79.87L285.50,79.87L285.50,85.37L141.49,85.37z"/><text xml:space="preserve" fill="#000000" stroke-width="0" x="143.60" y="84.10" font-size="3.83" opacity="1.00" font-family="Microsoft Sans Serif">3</text><text xml:space="preserve" fill="#000000" stroke-width="0" x="152.03" y="84.10" font-size="4.13" opacity="1.00" font-family="Microsoft Sans Serif">8001E08G20</text><text xml:space="preserve" fill="#000000" stroke-width="0" x="180.57" y="84.10" font-size="4.14" opacity="1.00" font-family="Microsoft Sans Serif">PARAF SEXT M8X1,25X20 5.6 ZB</text><text xml:space="preserve" fill="#000000" stroke-width="0" x="276.87" y="84.10" font-size="3.82" opacity="1.00" font-family="Microsoft Sans Serif">6</text><path style="stroke:#000000;stroke-width:0.353" d="M149.92,79.87L149.92,85.37"/><path style="stroke:#000000;stroke-width:0.353" d="M178.46,79.87L178.46,85.37"/><path style="stroke:#000000;stroke-width:0.353" d="M274.75,79.87L274.75,85.37"/></g><g id="Line4"><path style="stroke:#000000;stroke-width:0.353;fill:#f0f0ff" d="M141.49,85.37L285.50,85.37L285.50,90.88L141.49,90.88z"/><text xml:space="preserve" fill="#000000" stroke-width="0" x="143.60" y="89.61" font-size="4.05" opacity="1.00" font-family="Microsoft Sans Serif">4</text><text xml:space="preserve" fill="#000000" stroke-width="0" x="152.03" y="89.61" font-size="4.13" opacity="1.00" font-family="Microsoft Sans Serif">8007A08H02</text><text xml:space="preserve" fill="#000000" stroke-width="0" x="180.57" y="89.61" font-size="4.16" opacity="1.00" font-family="Microsoft Sans Serif">ARRUELA LISA DIAM 8,4X17X1,6 BA (ISO 7089)</text><text xml:space="preserve" fill="#000000" stroke-width="0" x="276.87" y="89.61" font-size="3.82" opacity="1.00" font-family="Microsoft Sans Serif">6</text><path style="stroke:#000000;stroke-width:0.353" d="M149.92,85.37L149.92,90.88"/><path style="stroke:#000000;stroke-width:0.353" d="M178.46,85.37L178.46,90.88"/><path style="stroke:#000000;stroke-width:0.353" d="M274.75,85.37L274.75,90.88"/></g></g><g id="hotspot.0" ident="" onmouseover="ShowHotSpot(evt,&apos;0&apos;)" onmouseout="HideHotSpot(evt,&apos;0&apos;)" onmousemove="ShowToolTip(evt,&apos;0&apos;,&quot; 10&quot;)" opacity="0"><a xlink:href="AirSteer Plus.svg"><path style="fill:#00ff00;fill-rule:evenodd" d="M289.05,40.88L238.40,40.88L238.40,8.94L289.05,8.94z"/></a></g><g id="hotspot.1" ident="" onmouseover="ShowHotSpot(evt,&apos;1&apos;)" onmouseout="HideHotSpot(evt,&apos;1&apos;)" onmousemove="ShowToolTip(evt,&apos;1&apos;,&quot;3010504401&quot;)" opacity="0"><path style="fill:#00ff00;fill-rule:evenodd" d="M141.49,68.87L141.49,74.37L285.50,74.37L285.50,68.87zM96.98,77.92L97.92,78.51L98.82,79.61L99.28,81.15L99.08,82.38L98.47,83.45L97.24,84.51L96.32,84.82L94.98,84.82L94.06,84.51L93.45,84.03L93.16,84.10L91.92,85.48L79.67,98.22L66.03,112.47L64.79,113.84L59.13,119.67L58.80,120.27L58.66,123.95L58.35,145.87L58.20,148.48L58.04,148.93L57.52,149.95L56.51,150.78L54.48,151.66L52.32,151.96L51.30,151.96L49.14,151.66L47.46,151.04L46.41,150.26L45.62,149.35L45.31,148.75L45.17,147.97L45.48,123.15L45.47,115.83L45.63,100.66L45.78,99.89L46.03,85.74L46.56,84.73L47.79,83.66L49.26,82.99L50.33,82.67L51.40,82.52L53.60,82.52L55.58,82.99L57.28,83.75L58.52,84.80L59.12,86.04L59.12,100.76L58.96,109.09L58.97,119.37L93.01,83.79L93.01,83.59L92.53,82.98L92.22,82.37L92.07,81.20L92.37,79.80L93.00,78.90L94.32,77.92L94.94,77.77L96.36,77.77z"/></g><g id="hotspot.2" ident="" onmouseover="ShowHotSpot(evt,&apos;2&apos;)" onmouseout="HideHotSpot(evt,&apos;2&apos;)" onmousemove="ShowToolTip(evt,&apos;2&apos;,&quot;3065212401&quot;)" opacity="0"><a xlink:href="Pino.svg"><path style="fill:#00ff00;fill-rule:evenodd" d="M141.49,74.37L141.49,79.87L285.50,79.87L285.50,74.37zM56.81,67.04L59.58,67.96L61.87,69.34L62.95,70.41L63.87,72.25L63.87,75.06L63.71,75.52L62.64,77.20L61.89,77.83L60.45,78.84L57.70,79.92L55.23,80.37L50.53,80.37L48.07,79.92L45.93,79.15L43.80,77.91L43.03,77.30L41.79,75.47L41.63,75.02L41.63,71.98L42.51,70.26L43.78,69.08L45.58,67.96L48.34,67.04L51.25,66.58L53.90,66.58zM97.28,98.46L98.04,99.08L98.53,99.51L99.13,100.60L99.28,101.88L98.97,103.11L98.34,104.01L97.24,104.90L96.32,105.21L94.98,105.21L94.06,104.89L93.70,104.87L61.10,152.00L58.19,156.16L58.14,156.44L60.49,157.78L61.74,158.99L62.49,160.08L62.95,161.46L62.95,163.04L62.80,163.81L62.34,164.88L61.57,165.96L60.67,166.74L58.50,167.95L56.47,168.68L53.85,169.12L49.92,169.13L47.92,168.82L45.32,168.06L43.03,166.81L41.65,165.59L40.71,164.07L40.56,163.46L40.56,160.89L40.88,159.98L41.73,158.69L42.71,157.83L44.09,156.91L46.50,155.94L48.49,155.48L49.72,155.33L53.44,155.33L54.52,155.48L57.12,156.10L57.84,156.10L93.46,104.50L93.13,103.99L92.69,103.66L92.22,102.61L92.22,100.65L92.62,99.83L93.42,98.94L94.48,98.31L94.93,98.15L96.52,98.15zM51.00,68.58L49.86,68.58L50.17,68.40L50.70,68.40zM61.75,75.04L60.73,75.04L60.73,74.87L61.75,74.87zM47.17,77.16L46.01,77.19L46.01,77.01L46.87,76.99zM49.95,157.36L48.92,157.36L48.92,157.18L49.95,157.18zM59.52,163.60L60.81,163.60L60.63,163.77L59.87,163.77zM44.96,165.75L45.96,165.77L45.96,165.94L44.99,165.89z"/></a></g><g id="hotspot.3" ident="" onmouseover="ShowHotSpot(evt,&apos;3&apos;)" onmouseout="HideHotSpot(evt,&apos;3&apos;)" onmousemove="ShowToolTip(evt,&apos;3&apos;,&quot;8001E08G20&quot;)" opacity="0"><a xlink:href="Pino.svg"><path style="fill:#00ff00;fill-rule:evenodd" d="M141.49,79.87L141.49,85.37L285.50,85.37L285.50,79.87zM51.60,37.00L51.76,37.61L51.77,38.75L51.30,39.04L51.01,42.12L50.65,42.37L49.91,42.36L49.41,42.10L49.30,39.14L49.00,38.98L48.84,38.38L48.80,37.15L49.71,36.68L50.84,36.68zM61.88,43.12L62.50,43.57L62.49,44.86L62.32,45.31L62.03,45.48L61.88,48.40L61.67,48.64L60.49,48.65L60.19,48.49L60.19,45.42L59.58,45.12L59.57,44.09L59.84,43.29L61.25,42.96zM47.79,45.72L47.77,47.46L47.31,47.62L47.17,50.54L46.66,50.96L46.08,50.96L45.63,50.78L45.46,50.49L45.49,47.70L44.97,47.46L45.01,45.63L45.72,45.26L47.01,45.26zM96.98,139.08L97.43,139.39L98.36,140.15L98.97,141.07L99.26,142.44L99.13,143.43L98.82,144.04L98.16,144.91L97.24,145.67L96.32,145.98L94.98,145.98L94.07,145.65L93.71,145.65L61.20,192.58L61.41,193.81L61.73,194.41L61.73,195.40L61.05,195.94L59.41,195.96L58.97,195.79L58.65,195.19L58.66,194.01L59.28,193.56L59.42,190.63L60.14,190.27L60.80,190.43L61.12,190.73L61.25,191.86L93.45,145.28L92.37,143.99L92.07,142.76L92.07,142.20L92.37,140.96L93.00,140.06L94.21,139.12L94.94,138.93L96.36,138.93zM50.24,184.29L50.39,187.20L51.00,187.97L51.00,188.80L50.71,189.28L49.88,189.67L48.99,189.67L48.39,189.51L47.76,188.75L47.76,188.18L48.09,187.58L48.55,187.12L48.69,184.20L48.94,183.98L49.93,183.98zM46.41,192.87L46.55,195.95L47.00,196.26L47.02,197.39L46.49,198.09L45.57,198.26L44.56,198.09L43.94,197.64L43.95,196.47L44.56,195.70L44.71,192.78L45.11,192.57L45.94,192.57z"/></a></g><g id="hotspot.4" ident="" onmouseover="ShowHotSpot(evt,&apos;4&apos;)" onmouseout="HideHotSpot(evt,&apos;4&apos;)" onmousemove="ShowToolTip(evt,&apos;4&apos;,&quot;8007A08H02&quot;)" opacity="0"><a xlink:href="Pino.svg"><path style="fill:#00ff00;fill-rule:evenodd" d="M141.49,85.37L141.49,90.88L285.50,90.88L285.50,85.37zM51.63,53.06L52.08,53.53L52.08,54.38L51.90,54.66L51.11,55.09L49.60,55.09L48.70,54.61L48.54,54.46L48.53,53.43L48.79,53.08L49.56,52.78L50.99,52.78zM62.34,59.37L62.96,60.14L62.79,60.80L62.14,61.38L61.36,61.52L60.81,61.52L60.03,61.37L59.43,61.05L59.26,60.77L59.26,59.87L59.52,59.52L60.13,59.21L61.10,59.06zM47.78,61.67L48.25,62.28L48.25,62.80L47.87,63.35L46.96,63.67L45.77,63.67L44.72,63.19L44.54,62.91L44.54,62.17L45.12,61.52L45.57,61.36L47.17,61.36zM97.59,119.00L98.35,119.77L98.84,120.36L99.28,121.45L99.28,122.73L98.82,123.80L97.99,124.81L96.48,125.60L94.98,125.60L94.07,125.29L93.92,125.33L60.65,179.00L60.63,179.24L61.57,179.54L62.04,180.15L62.04,180.83L61.66,181.22L61.07,181.55L59.26,181.55L58.51,181.07L58.34,180.79L58.34,180.05L58.76,179.55L59.69,179.08L60.13,179.10L93.61,125.04L93.28,124.53L92.70,124.05L92.22,123.00L92.22,121.19L92.77,120.06L93.86,119.00L94.93,118.54L96.52,118.54zM50.69,173.11L51.15,173.56L51.15,174.55L50.78,174.94L49.87,175.26L48.99,175.26L48.08,174.95L47.78,174.79L47.61,174.50L47.61,173.61L47.87,173.26L48.48,172.95L50.23,172.95zM47.01,181.84L47.32,182.30L47.32,182.98L47.17,183.28L46.50,183.69L44.54,183.70L43.95,183.37L43.79,183.22L43.79,182.05L44.50,181.54L45.78,181.39zM51.16,53.87L51.16,54.04L50.48,54.33L49.61,54.16L49.39,53.83L50.02,53.54L50.54,53.54zM61.88,60.28L61.68,60.60L60.48,60.62L60.28,60.48L60.28,60.15L60.59,59.97L61.58,59.98zM47.19,62.44L47.17,62.63L46.98,62.76L45.76,62.76L45.57,62.63L45.62,62.35L46.03,62.12L46.71,62.12zM50.24,174.01L50.03,174.33L48.84,174.35L48.53,174.17L48.53,173.94L48.94,173.72L49.77,173.72zM60.97,180.29L60.91,180.63L60.60,180.63L60.82,180.14zM46.26,182.46L46.41,182.68L46.05,182.93L45.00,182.93L44.65,182.60L44.95,182.30L45.94,182.30z"/></a></g><g id="ToolTip" visibility="hidden" opacity="0" transform="translate(0,0)"><rect id="ToolTipShadow" opacity="0.20" fill="black" stroke="none" x="0" y="0" width="30" height="8"/><rect id="ToolTipBG" fill="#ffffe1" stroke="black" x="0" y="0" width="30" height="8"/><text xml:space="preserve" id="ToolTipText" fill="black" x="0" y="0" width="30" height="8">tooltip</text></g></g></svg>